<svg width="210" height="305" viewBox="0 0 210 305" fill="none" xmlns="http://www.w3.org/2000/svg">
<path d="M104.416 5C104.416 5 158.14 34.9526 177.158 62.5281C196.175 90.1035 186.933 148.582 181.437 165.223C175.941 181.863 173.321 185.475 173.83 198.979C174.725 222.731 203.307 252.228 203.307 252.228C203.307 252.228 188.618 265.527 177.158 270.295C168.009 274.101 152.435 276 152.435 276C152.435 276 125.508 300.809 104.416 300.723C83.4887 300.638 56.8719 276 56.8719 276C56.8719 276 40.6439 274.328 31.1982 270.295C20.0625 265.54 6 252.228 6 252.228C6 252.228 32.2736 222.361 33.5754 198.979C34.3205 185.598 27.3947 165.223 27.3947 165.223C27.3947 165.223 0.294737 103.416 31.1982 62.5281C62.1018 21.6404 104.416 5 104.416 5Z" fill="#067404" stroke="white" stroke-width="8"/>
<mask id="path-2-outside-1_554_958" maskUnits="userSpaceOnUse" x="31" y="219" width="141" height="41" fill="black">
<rect fill="white" x="31" y="219" width="141" height="41"/>
<path d="M52.2137 240.832C52.2137 241.158 52.1508 241.46 52.0251 241.739C51.909 242.007 51.5849 242.142 51.0528 242.142H48.8036C48.4167 242.142 48.0007 242.151 47.5557 242.171C47.1107 242.199 46.6947 242.271 46.3078 242.386C45.8337 242.521 45.4468 242.732 45.1469 243.02C44.8567 243.308 44.7116 243.615 44.7116 243.941C44.7116 244.268 44.8905 244.469 45.2485 244.546C45.6161 244.632 46.0659 244.714 46.598 244.791C47.0333 244.858 47.5218 244.987 48.0636 245.179C48.615 245.381 49.089 245.659 49.4856 246.014C49.892 246.379 50.0951 246.84 50.0951 247.396C50.0951 248.126 49.8436 248.803 49.3405 249.426C48.8472 250.05 48.1893 250.612 47.3671 251.111C46.5448 251.61 45.6354 252.032 44.639 252.378C43.6426 252.733 42.6365 253.001 41.6207 253.184C40.6146 253.376 39.6811 253.472 38.8201 253.472C36.6822 253.472 35.0086 252.925 33.7994 251.831C32.5998 250.736 32 249.249 32 247.368C32 246.6 32.1016 245.832 32.3047 245.064C32.5176 244.306 32.7594 243.61 33.0303 242.977C33.3108 242.343 33.5672 241.835 33.7994 241.451C34.0412 241.067 34.1911 240.875 34.2492 240.875C34.4717 240.875 34.5829 240.956 34.5829 241.12C34.5829 241.177 34.462 241.446 34.2202 241.926C33.9783 242.396 33.7365 242.986 33.4946 243.697C33.2624 244.416 33.1464 245.165 33.1464 245.942C33.1464 246.969 33.364 247.79 33.7994 248.404C34.2347 249.018 34.8054 249.479 35.5116 249.786C36.2275 250.093 37.0014 250.295 37.8334 250.391C38.6653 250.496 39.478 250.549 40.2712 250.549C40.6292 250.549 41.1612 250.482 41.8674 250.348C42.5736 250.213 43.3379 250.036 44.1601 249.815C44.9921 249.594 45.7854 249.35 46.5399 249.081C47.2945 248.822 47.9136 248.563 48.3973 248.303C48.8907 248.044 49.1374 247.814 49.1374 247.612C49.1374 247.046 48.2329 246.72 46.4238 246.633C45.8918 246.605 45.3452 246.557 44.7841 246.489C44.2327 246.422 43.7635 246.274 43.3766 246.043C42.9993 245.822 42.8106 245.463 42.8106 244.963C42.8106 244.618 42.8977 244.258 43.0718 243.884C43.246 243.519 43.4249 243.197 43.6087 242.919C44.7212 241.182 46.0756 240.107 47.6718 239.694C47.9813 239.618 48.2716 239.574 48.5424 239.565C48.823 239.546 49.1229 239.536 49.4421 239.536H51.0528C51.5849 239.536 51.909 239.67 52.0251 239.939C52.1508 240.208 52.2137 240.505 52.2137 240.832ZM42.8977 256.61C42.8977 256.658 42.8348 256.788 42.7091 256.999C42.593 257.22 42.4479 257.46 42.2737 257.719C42.1093 257.978 41.9545 258.199 41.8094 258.381C41.6643 258.573 41.5627 258.669 41.5046 258.669C41.4756 258.669 41.3692 258.606 41.1854 258.482C41.0113 258.357 40.8081 258.208 40.5759 258.035C40.3534 257.872 40.1551 257.724 39.981 257.589C39.8165 257.455 39.7246 257.383 39.7053 257.373C39.6472 257.325 39.594 257.301 39.5457 257.301C39.4973 257.301 39.4489 257.325 39.4006 257.373C39.3812 257.392 39.2796 257.536 39.0958 257.805C38.912 258.074 38.7186 258.338 38.5154 258.597C38.3219 258.866 38.1962 259 38.1381 259C38.0994 259 37.9785 258.938 37.7753 258.813C37.5819 258.688 37.3642 258.539 37.1224 258.367C36.8902 258.194 36.687 258.031 36.5129 257.877C36.3388 257.733 36.2517 257.637 36.2517 257.589C36.2517 257.532 36.3146 257.397 36.4403 257.186C36.5758 256.975 36.7257 256.74 36.8902 256.481C37.0643 256.231 37.2239 256.01 37.369 255.818C37.5141 255.636 37.6012 255.545 37.6302 255.545C37.7173 255.545 37.8963 255.646 38.1671 255.847C38.438 256.049 38.6992 256.25 38.9507 256.452C39.2022 256.663 39.3377 256.783 39.357 256.812C39.4441 256.898 39.507 256.941 39.5457 256.941C39.6037 256.941 39.6666 256.889 39.7343 256.783C39.7537 256.754 39.8552 256.605 40.039 256.337C40.2325 256.078 40.426 255.818 40.6195 255.559C40.8226 255.3 40.9436 255.171 40.9823 255.171C41.0306 255.171 41.1515 255.238 41.345 255.372C41.5482 255.506 41.7707 255.66 42.0125 255.833C42.2544 256.015 42.4624 256.183 42.6365 256.337C42.8106 256.49 42.8977 256.581 42.8977 256.61Z"/>
<path d="M74.2122 240.832C74.2122 241.158 74.1494 241.46 74.0236 241.739C73.9075 242.007 73.5883 242.142 73.0659 242.142H72.2823C70.5313 242.142 69.1383 242.084 68.1031 241.969C67.068 241.844 66.299 241.619 65.7959 241.292C65.2348 240.908 64.9543 240.294 64.9543 239.45C64.9543 239.171 64.9881 238.898 65.0559 238.629C65.1236 238.36 65.1913 238.077 65.259 237.78H64.8817C63.2372 237.78 61.8344 237.996 60.6736 238.427C59.5224 238.859 58.4631 239.344 57.4957 239.882C56.4993 240.438 55.527 240.956 54.579 241.436C53.6309 241.907 52.5523 242.142 51.343 242.142H50.574C50.0419 242.142 49.7178 242.007 49.6017 241.739C49.476 241.46 49.4131 241.158 49.4131 240.832C49.4131 240.505 49.476 240.208 49.6017 239.939C49.7178 239.67 50.0419 239.536 50.574 239.536H51.343C52.7361 239.536 53.9163 239.392 54.8837 239.104C55.8511 238.816 56.7459 238.504 57.5682 238.168C58.0809 237.957 58.5791 237.76 59.0628 237.578C59.5562 237.396 60.0689 237.247 60.601 237.132C60.2237 236.978 59.7062 236.762 59.0483 236.484C58.3905 236.206 57.6746 235.951 56.9007 235.721C56.1268 235.491 55.3626 235.375 54.608 235.375C54.0276 235.375 53.5342 235.457 53.1279 235.62C52.7313 235.783 52.5088 235.865 52.4604 235.865C52.354 235.865 52.3008 235.822 52.3008 235.735C52.3008 235.131 52.5233 234.588 52.9683 234.109C53.4229 233.619 53.8873 233.25 54.3613 233C54.6419 232.837 54.9466 232.736 55.2755 232.698C55.6141 232.659 55.885 232.64 56.0881 232.64C56.5138 232.64 57.012 232.741 57.5827 232.942C58.1632 233.144 58.7678 233.389 59.3966 233.677C60.0351 233.955 60.659 234.224 61.2685 234.483C61.878 234.742 62.4294 234.929 62.9227 235.044C63.6773 235.217 64.3642 235.347 64.9833 235.433C65.6121 235.51 66.299 235.558 67.0438 235.577C67.7887 235.596 68.7126 235.606 69.8154 235.606C69.8638 235.606 69.8977 235.63 69.917 235.678C69.9364 235.726 69.946 235.759 69.946 235.779C69.946 235.807 69.9122 235.951 69.8445 236.21C69.7767 236.46 69.7042 236.729 69.6268 237.017C69.5494 237.295 69.4865 237.492 69.4381 237.607C69.3898 237.751 68.3692 237.823 66.3763 237.823C66.3667 237.852 66.357 237.895 66.3473 237.952C66.3473 238 66.3473 238.048 66.3473 238.096C66.3473 238.48 66.623 238.783 67.1744 239.003C67.5904 239.176 68.0983 239.301 68.6981 239.378C69.3075 239.454 69.9315 239.502 70.57 239.522C71.2182 239.531 71.7889 239.536 72.2823 239.536H73.0659C73.5883 239.536 73.9075 239.67 74.0236 239.939C74.1494 240.208 74.2122 240.505 74.2122 240.832ZM63.4597 245.626C63.4597 245.674 63.3968 245.803 63.271 246.014C63.1549 246.235 63.0098 246.47 62.8357 246.72C62.6712 246.979 62.5116 247.2 62.3568 247.382C62.202 247.574 62.0956 247.67 62.0376 247.67C62.0086 247.67 61.8925 247.608 61.6893 247.483C61.4958 247.358 61.2782 247.209 61.0363 247.037C60.7945 246.873 60.5817 246.715 60.3979 246.561C60.2237 246.417 60.1367 246.322 60.1367 246.274C60.1367 246.216 60.1995 246.082 60.3253 245.87C60.4511 245.659 60.601 245.424 60.7751 245.165C60.9493 244.915 61.1089 244.695 61.254 244.503C61.4088 244.32 61.5055 244.229 61.5442 244.229C61.6023 244.229 61.7329 244.292 61.936 244.416C62.1392 244.551 62.3568 244.704 62.589 244.877C62.8212 245.05 63.0243 245.208 63.1985 245.352C63.3726 245.506 63.4597 245.597 63.4597 245.626Z"/>
<path d="M78.0141 236.628C78.0141 238.039 77.8061 239.147 77.3901 239.953C76.9741 240.75 76.4082 241.316 75.6923 241.652C74.9861 241.979 74.1929 242.142 73.3126 242.142H72.5435C72.0114 242.142 71.6873 242.007 71.5713 241.739C71.4455 241.46 71.3826 241.158 71.3826 240.832C71.3826 240.505 71.4455 240.208 71.5713 239.939C71.6873 239.67 72.0114 239.536 72.5435 239.536H73.3126C73.9123 239.536 74.4444 239.488 74.9088 239.392C75.3828 239.286 75.7842 239.157 76.1132 239.003C76.4131 238.859 76.6356 238.701 76.7807 238.528C76.9354 238.346 77.0128 238.207 77.0128 238.111C77.0128 238.024 76.9403 237.847 76.7952 237.578C76.6597 237.3 76.5001 236.993 76.3163 236.657C76.1422 236.321 75.9826 236.018 75.8375 235.75C75.702 235.481 75.6343 235.313 75.6343 235.246C75.6343 235.15 75.6972 234.977 75.8229 234.728C75.9584 234.478 76.1132 234.209 76.2873 233.921C76.4614 233.624 76.621 233.36 76.7662 233.13C76.9209 232.89 77.0177 232.741 77.0564 232.683C77.3756 233.374 77.6126 234.037 77.7674 234.67C77.9319 235.303 78.0141 235.956 78.0141 236.628ZM77.9851 228.537C77.9851 228.585 77.9222 228.719 77.7964 228.94C77.6803 229.151 77.5352 229.386 77.3611 229.646C77.1966 229.895 77.037 230.116 76.8822 230.308C76.7275 230.49 76.621 230.581 76.563 230.581C76.534 230.581 76.4179 230.519 76.2147 230.394C76.0213 230.269 75.8036 230.126 75.5617 229.962C75.3199 229.79 75.1071 229.631 74.9233 229.487C74.7491 229.334 74.6621 229.233 74.6621 229.185C74.6621 229.127 74.725 228.993 74.8507 228.782C74.9765 228.571 75.1264 228.34 75.3006 228.091C75.4747 227.832 75.6343 227.611 75.7794 227.429C75.9342 227.237 76.0309 227.141 76.0696 227.141C76.1277 227.141 76.2583 227.208 76.4614 227.342C76.6646 227.467 76.8822 227.616 77.1144 227.788C77.3466 227.961 77.5497 228.124 77.7239 228.278C77.898 228.422 77.9851 228.508 77.9851 228.537Z"/>
<path d="M87.1415 241.12C87.1415 242.099 86.9528 243.111 86.5755 244.157C86.2079 245.213 85.7146 246.197 85.0954 247.109C84.486 248.03 83.8088 248.788 83.0639 249.383C82.6189 249.748 82.14 250.007 81.6273 250.161C81.1243 250.314 80.6406 250.405 80.1762 250.434C79.7215 250.463 79.3443 250.477 79.0444 250.477C78.5413 250.477 77.9996 250.381 77.4191 250.189C76.8387 250.007 76.3453 249.81 75.939 249.599C75.5231 249.398 75.3151 249.278 75.3151 249.239C75.3151 249.191 75.3392 249.138 75.3876 249.081C75.4263 249.023 75.465 248.994 75.5037 248.994C75.5327 248.994 75.6972 249.014 75.9971 249.052C76.2873 249.09 76.6114 249.129 76.9693 249.167C77.3176 249.215 77.5884 249.239 77.7819 249.239C78.5849 249.239 79.4603 248.999 80.4084 248.519C81.3564 248.049 82.3432 247.334 83.3686 246.374C84.2973 245.52 85.0084 244.7 85.5017 243.913C85.9951 243.126 86.2418 242.478 86.2418 241.969C86.2418 241.777 86.1499 241.465 85.9661 241.033C85.7823 240.592 85.5694 240.121 85.3276 239.622C85.0954 239.123 84.8874 238.677 84.7036 238.284C84.5198 237.88 84.4279 237.616 84.4279 237.492C84.4279 237.386 84.4811 237.209 84.5875 236.959C84.6939 236.7 84.8149 236.422 84.9503 236.124C85.0954 235.827 85.2309 235.567 85.3566 235.347C85.4824 235.116 85.5598 234.987 85.5888 234.958C86.1886 235.918 86.5949 236.954 86.8077 238.068C87.0302 239.181 87.1415 240.198 87.1415 241.12ZM87.156 230.826C87.156 230.874 87.0931 231.008 86.9673 231.229C86.8512 231.44 86.7061 231.676 86.532 231.935C86.3675 232.184 86.2079 232.405 86.0531 232.597C85.8984 232.779 85.7919 232.87 85.7339 232.87C85.7049 232.87 85.5888 232.808 85.3856 232.683C85.1922 232.559 84.9745 232.415 84.7326 232.251C84.4908 232.079 84.278 231.92 84.0942 231.776C83.92 231.623 83.833 231.522 83.833 231.474C83.833 231.416 83.8958 231.282 84.0216 231.071C84.1474 230.86 84.2973 230.629 84.4714 230.38C84.6456 230.121 84.8052 229.9 84.9503 229.718C85.1051 229.526 85.2018 229.43 85.2405 229.43C85.2986 229.43 85.4292 229.497 85.6323 229.631C85.8355 229.756 86.0531 229.905 86.2853 230.078C86.5175 230.25 86.7206 230.413 86.8948 230.567C87.0689 230.711 87.156 230.797 87.156 230.826Z"/>
<path d="M100.462 240.832C100.462 241.158 100.4 241.46 100.274 241.739C100.158 242.007 99.8337 242.142 99.3016 242.142H98.518C98.4213 242.142 98.3197 242.137 98.2133 242.127C98.1165 242.108 98.0005 242.099 97.865 242.099C97.7393 243.279 97.4974 244.431 97.1395 245.554C96.7912 246.686 96.1382 247.833 95.1805 248.994C94.6484 249.628 94.0341 250.146 93.3376 250.549C92.6508 250.952 91.8188 251.154 90.8417 251.154C90.3193 251.154 89.7292 251.087 89.0714 250.952C88.4233 250.828 87.8622 250.688 87.3881 250.535C86.9141 250.381 86.6771 250.261 86.6771 250.175C86.6771 250.098 86.7158 250.031 86.7932 249.973C86.8706 249.916 86.9431 249.887 87.0109 249.887C87.0592 249.887 87.214 249.906 87.4752 249.945C87.7267 249.993 87.9444 250.017 88.1282 250.017C88.9505 250.017 89.9421 249.781 91.1029 249.311C92.2638 248.841 93.4053 248.054 94.5275 246.95C95.137 246.336 95.6062 245.741 95.9351 245.165C96.2737 244.599 96.5058 244.109 96.6316 243.697C96.767 243.284 96.8347 243.025 96.8347 242.919C96.8347 242.833 96.7573 242.67 96.6026 242.43C96.4478 242.199 96.264 241.945 96.0512 241.667C95.848 241.388 95.669 241.139 95.5142 240.918C95.3595 240.688 95.2821 240.539 95.2821 240.472C95.2821 240.424 95.3546 240.237 95.4997 239.91C95.6545 239.574 95.8093 239.234 95.9641 238.888C96.1285 238.533 96.2301 238.307 96.2688 238.212H96.3994C96.68 238.528 96.9895 238.831 97.3281 239.118C97.6764 239.397 98.073 239.536 98.518 239.536H99.3016C99.8337 239.536 100.158 239.67 100.274 239.939C100.4 240.208 100.462 240.505 100.462 240.832Z"/>
<path d="M108.197 240.832C108.197 241.158 108.134 241.46 108.008 241.739C107.892 242.007 107.568 242.142 107.036 242.142H106.223C105.836 242.142 105.507 242.079 105.237 241.955C104.966 241.83 104.719 241.647 104.496 241.408C104.351 241.244 104.182 241.019 103.989 240.731C103.805 240.443 103.66 240.174 103.553 239.925C103.06 240.481 102.528 240.99 101.957 241.451C101.386 241.911 100.583 242.142 99.5483 242.142H98.7792C98.2471 242.142 97.9231 242.007 97.807 241.739C97.6812 241.46 97.6183 241.158 97.6183 240.832C97.6183 240.505 97.6812 240.208 97.807 239.939C97.9231 239.67 98.2471 239.536 98.7792 239.536H99.5483C100.496 239.536 101.261 239.402 101.841 239.133C102.421 238.855 102.871 238.533 103.191 238.168C103.51 237.804 103.752 237.487 103.916 237.218C104.081 236.94 104.216 236.801 104.322 236.801C104.409 236.801 104.467 236.921 104.496 237.161C104.535 237.391 104.608 237.655 104.714 237.952C104.821 238.288 104.995 238.639 105.237 239.003C105.478 239.358 105.807 239.536 106.223 239.536H107.036C107.568 239.536 107.892 239.67 108.008 239.939C108.134 240.208 108.197 240.505 108.197 240.832ZM104.555 245.626C104.555 245.674 104.492 245.803 104.366 246.014C104.25 246.235 104.105 246.47 103.931 246.72C103.766 246.979 103.606 247.2 103.452 247.382C103.297 247.574 103.191 247.67 103.132 247.67C103.103 247.67 102.987 247.608 102.784 247.483C102.591 247.358 102.373 247.209 102.131 247.037C101.889 246.873 101.677 246.715 101.493 246.561C101.319 246.417 101.232 246.322 101.232 246.274C101.232 246.216 101.294 246.082 101.42 245.87C101.546 245.659 101.696 245.424 101.87 245.165C102.044 244.915 102.204 244.695 102.349 244.503C102.504 244.32 102.6 244.229 102.639 244.229C102.697 244.229 102.828 244.292 103.031 244.416C103.234 244.551 103.452 244.704 103.684 244.877C103.916 245.05 104.119 245.208 104.293 245.352C104.467 245.506 104.555 245.597 104.555 245.626Z"/>
<path d="M111.984 234.396C111.984 234.819 111.945 235.337 111.868 235.951C111.791 236.556 111.718 237.06 111.65 237.463C111.583 237.856 111.486 238.317 111.36 238.845C111.234 239.373 111.026 239.891 110.736 240.4C110.446 240.899 110.025 241.316 109.474 241.652C108.922 241.979 108.187 242.142 107.268 242.142H106.499C105.967 242.142 105.643 242.007 105.527 241.739C105.401 241.46 105.338 241.158 105.338 240.832C105.338 240.505 105.401 240.208 105.527 239.939C105.643 239.67 105.967 239.536 106.499 239.536H107.268C107.781 239.536 108.327 239.43 108.908 239.219C109.488 239.008 109.982 238.696 110.388 238.284C110.794 237.861 110.997 237.353 110.997 236.757C110.997 236.441 110.93 235.855 110.794 235.001C110.659 234.137 110.49 233.134 110.286 231.992C110.083 230.841 109.88 229.66 109.677 228.451C109.483 227.241 109.319 226.114 109.184 225.068C109.048 224.021 108.98 223.186 108.98 222.563C108.98 222.284 109.043 221.944 109.169 221.54C109.295 221.137 109.459 220.782 109.662 220.475C109.866 220.158 110.074 220 110.286 220C110.306 220 110.398 220.125 110.562 220.374C110.727 220.624 110.91 220.917 111.113 221.252C111.317 221.588 111.496 221.891 111.65 222.159C111.805 222.428 111.883 222.577 111.883 222.606C111.883 222.644 111.771 222.755 111.549 222.937C111.336 223.119 111.118 223.369 110.896 223.685C110.683 224.002 110.577 224.386 110.577 224.837C110.577 225.394 110.644 226.09 110.78 226.925C110.925 227.76 111.089 228.643 111.273 229.574C111.467 230.495 111.631 231.383 111.766 232.237C111.912 233.082 111.984 233.801 111.984 234.396Z"/>
<path d="M118.398 237.175C118.398 237.309 118.369 237.568 118.311 237.952C118.263 238.336 118.195 238.773 118.108 239.262C118.03 239.752 117.938 240.227 117.832 240.688C117.735 241.139 117.639 241.518 117.542 241.825C117.445 242.123 117.358 242.271 117.281 242.271C117.039 242.271 116.918 242.156 116.918 241.926C116.918 241.868 116.961 241.638 117.048 241.235C117.145 240.832 117.194 240.318 117.194 239.694C117.194 239.301 117.15 238.715 117.063 237.938C116.986 237.151 116.884 236.258 116.758 235.26C116.632 234.262 116.497 233.24 116.352 232.194C116.207 231.138 116.071 230.145 115.946 229.214C115.82 228.273 115.713 227.477 115.626 226.824C115.549 226.162 115.51 225.735 115.51 225.543C115.51 225.226 115.559 224.847 115.655 224.405C115.752 223.964 115.868 223.527 116.004 223.095C116.139 222.663 116.275 222.299 116.41 222.001C116.555 221.694 116.671 221.526 116.758 221.497C116.816 221.584 116.869 221.828 116.918 222.231C116.966 222.635 116.99 222.946 116.99 223.167V224.362L118.398 237.175Z"/>
<path d="M145.519 240.832C145.519 241.158 145.456 241.46 145.33 241.739C145.214 242.007 144.89 242.142 144.358 242.142H143.589C142.631 242.142 141.901 241.988 141.398 241.681C140.895 241.364 140.488 240.884 140.179 240.241C139.869 239.589 139.526 238.754 139.149 237.736C138.791 238.351 138.447 238.893 138.118 239.363C137.789 239.824 137.402 240.208 136.957 240.515C136.309 240.956 135.608 241.278 134.853 241.48C134.099 241.671 133.335 241.767 132.561 241.767C132.067 241.767 131.574 241.71 131.08 241.595C130.587 241.47 130.176 241.268 129.847 240.99C129.518 240.702 129.354 240.313 129.354 239.824C129.354 239.728 129.392 239.541 129.47 239.262C129.557 238.975 129.658 238.667 129.775 238.341C129.891 238.015 130.002 237.732 130.108 237.492C130.224 237.252 130.311 237.132 130.369 237.132C130.457 237.132 130.524 237.237 130.573 237.449C130.621 237.65 130.665 237.804 130.703 237.909C130.79 238.149 131.022 238.403 131.4 238.672C131.787 238.941 132.474 239.075 133.46 239.075C134.108 239.075 134.742 239.047 135.361 238.989C135.99 238.922 136.556 238.783 137.059 238.571C137.572 238.351 137.978 238.015 138.278 237.564C138.578 237.103 138.728 236.479 138.728 235.692C138.641 234.819 138.5 233.969 138.307 233.144C138.113 232.309 137.934 231.532 137.77 230.812C137.606 230.082 137.523 229.439 137.523 228.883C137.523 228.758 137.572 228.561 137.668 228.292C137.775 228.024 137.896 227.745 138.031 227.457C138.167 227.169 138.292 226.925 138.408 226.723C138.534 226.512 138.612 226.406 138.641 226.406C138.718 226.406 138.766 226.44 138.786 226.507C138.815 226.565 138.834 226.718 138.844 226.968C138.999 227.995 139.173 229.099 139.366 230.279C139.569 231.45 139.782 232.592 140.005 233.705C140.237 234.809 140.469 235.779 140.701 236.614C140.933 237.449 141.151 238.039 141.354 238.384C141.586 238.768 141.906 239.056 142.312 239.248C142.728 239.44 143.154 239.536 143.589 239.536H144.358C144.89 239.536 145.214 239.67 145.33 239.939C145.456 240.208 145.519 240.505 145.519 240.832Z"/>
<path d="M149.364 234.396C149.364 234.819 149.326 235.337 149.248 235.951C149.171 236.556 149.098 237.06 149.03 237.463C148.963 237.856 148.866 238.317 148.74 238.845C148.615 239.373 148.407 239.891 148.116 240.4C147.826 240.899 147.405 241.316 146.854 241.652C146.302 241.979 145.567 242.142 144.648 242.142H143.879C143.347 242.142 143.023 242.007 142.907 241.739C142.781 241.46 142.718 241.158 142.718 240.832C142.718 240.505 142.781 240.208 142.907 239.939C143.023 239.67 143.347 239.536 143.879 239.536H144.648C145.161 239.536 145.707 239.43 146.288 239.219C146.868 239.008 147.362 238.696 147.768 238.284C148.174 237.861 148.377 237.353 148.377 236.757C148.377 236.441 148.31 235.855 148.174 235.001C148.039 234.137 147.87 233.134 147.666 231.992C147.463 230.841 147.26 229.66 147.057 228.451C146.864 227.241 146.699 226.114 146.564 225.068C146.428 224.021 146.36 223.186 146.36 222.563C146.36 222.284 146.423 221.944 146.549 221.54C146.675 221.137 146.839 220.782 147.042 220.475C147.246 220.158 147.454 220 147.666 220C147.686 220 147.778 220.125 147.942 220.374C148.107 220.624 148.29 220.917 148.494 221.252C148.697 221.588 148.876 221.891 149.03 222.159C149.185 222.428 149.263 222.577 149.263 222.606C149.263 222.644 149.151 222.755 148.929 222.937C148.716 223.119 148.498 223.369 148.276 223.685C148.063 224.002 147.957 224.386 147.957 224.837C147.957 225.394 148.024 226.09 148.16 226.925C148.305 227.76 148.469 228.643 148.653 229.574C148.847 230.495 149.011 231.383 149.147 232.237C149.292 233.082 149.364 233.801 149.364 234.396Z"/>
<path d="M161.931 240.832C161.931 241.158 161.868 241.46 161.742 241.739C161.626 242.007 161.307 242.142 160.784 242.142L158.796 242.185C158.7 242.809 158.492 243.553 158.172 244.416C157.853 245.29 157.452 246.168 156.968 247.051C156.494 247.944 155.957 248.731 155.357 249.412C154.622 250.228 153.892 250.808 153.166 251.154C152.441 251.509 151.705 251.687 150.96 251.687C150.544 251.687 150.066 251.61 149.524 251.456C148.992 251.303 148.474 251.12 147.971 250.909C147.468 250.698 147.052 250.501 146.723 250.319C146.385 250.137 146.215 250.021 146.215 249.973C146.215 249.762 146.327 249.657 146.549 249.657C146.743 249.657 147.086 249.724 147.579 249.858C148.063 249.993 148.585 250.06 149.147 250.06C150.037 250.06 150.951 249.839 151.889 249.398C152.837 248.966 153.727 248.38 154.559 247.641C155.391 246.902 156.092 246.062 156.663 245.122C157.244 244.191 157.621 243.226 157.795 242.228C156.46 242.094 155.372 241.892 154.53 241.623C153.688 241.355 153.268 240.817 153.268 240.011C153.268 239.733 153.369 239.315 153.572 238.759C153.776 238.202 154.037 237.631 154.356 237.045C154.685 236.45 155.028 235.946 155.386 235.534C155.754 235.121 156.102 234.915 156.431 234.915C156.799 234.915 157.132 235.078 157.432 235.404C157.742 235.721 158.008 236.124 158.23 236.614C158.453 237.103 158.622 237.612 158.738 238.14C158.864 238.667 158.927 239.133 158.927 239.536H160.784C161.307 239.536 161.626 239.67 161.742 239.939C161.868 240.208 161.931 240.505 161.931 240.832ZM157.708 239.493C157.708 239.234 157.602 238.951 157.389 238.643C157.176 238.336 156.92 238.077 156.62 237.866C156.32 237.645 156.039 237.535 155.778 237.535C155.507 237.535 155.299 237.64 155.154 237.852C155.019 238.063 154.951 238.307 154.951 238.586C154.951 238.778 155.178 238.975 155.633 239.176C156.088 239.368 156.779 239.474 157.708 239.493Z"/>
<path d="M171 237.449C171 237.688 170.903 238.024 170.71 238.456C170.516 238.879 170.284 239.267 170.013 239.622C169.742 239.968 169.481 240.141 169.23 240.141C168.93 240.141 168.533 240.045 168.04 239.853C167.546 239.661 167.034 239.426 166.502 239.147C165.979 238.869 165.51 238.6 165.094 238.341C164.601 238.936 164.122 239.55 163.657 240.184C163.193 240.808 162.724 241.288 162.25 241.623C162.027 241.777 161.819 241.902 161.626 241.998C161.432 242.094 161.239 242.142 161.046 242.142H160.276C159.744 242.142 159.42 242.007 159.304 241.739C159.178 241.46 159.116 241.158 159.116 240.832C159.116 240.505 159.178 240.208 159.304 239.939C159.42 239.67 159.744 239.536 160.276 239.536H161.046C161.848 239.536 162.521 239.31 163.063 238.859C163.614 238.399 164.093 237.828 164.499 237.146C164.915 236.455 165.317 235.769 165.704 235.087C166.09 234.435 166.482 233.849 166.879 233.331C167.276 232.813 167.745 232.554 168.286 232.554C168.606 232.554 168.881 232.621 169.114 232.755C169.346 232.88 169.568 233.115 169.781 233.461C170.013 233.845 170.221 234.296 170.405 234.814C170.589 235.323 170.734 235.817 170.84 236.297C170.947 236.777 171 237.161 171 237.449ZM168.794 236.498C168.794 236.191 168.649 235.85 168.359 235.476C168.069 235.102 167.745 234.915 167.387 234.915C167.106 234.915 166.869 235.011 166.676 235.203C166.492 235.395 166.4 235.615 166.4 235.865C166.4 235.903 166.415 235.951 166.444 236.009C166.473 236.066 166.54 236.129 166.647 236.196C166.831 236.292 167.063 236.388 167.343 236.484C167.633 236.58 167.9 236.657 168.141 236.714C168.383 236.772 168.528 236.801 168.577 236.801C168.722 236.801 168.794 236.7 168.794 236.498Z"/>
</mask>
<path d="M52.2137 240.832C52.2137 241.158 52.1508 241.46 52.0251 241.739C51.909 242.007 51.5849 242.142 51.0528 242.142H48.8036C48.4167 242.142 48.0007 242.151 47.5557 242.171C47.1107 242.199 46.6947 242.271 46.3078 242.386C45.8337 242.521 45.4468 242.732 45.1469 243.02C44.8567 243.308 44.7116 243.615 44.7116 243.941C44.7116 244.268 44.8905 244.469 45.2485 244.546C45.6161 244.632 46.0659 244.714 46.598 244.791C47.0333 244.858 47.5218 244.987 48.0636 245.179C48.615 245.381 49.089 245.659 49.4856 246.014C49.892 246.379 50.0951 246.84 50.0951 247.396C50.0951 248.126 49.8436 248.803 49.3405 249.426C48.8472 250.05 48.1893 250.612 47.3671 251.111C46.5448 251.61 45.6354 252.032 44.639 252.378C43.6426 252.733 42.6365 253.001 41.6207 253.184C40.6146 253.376 39.6811 253.472 38.8201 253.472C36.6822 253.472 35.0086 252.925 33.7994 251.831C32.5998 250.736 32 249.249 32 247.368C32 246.6 32.1016 245.832 32.3047 245.064C32.5176 244.306 32.7594 243.61 33.0303 242.977C33.3108 242.343 33.5672 241.835 33.7994 241.451C34.0412 241.067 34.1911 240.875 34.2492 240.875C34.4717 240.875 34.5829 240.956 34.5829 241.12C34.5829 241.177 34.462 241.446 34.2202 241.926C33.9783 242.396 33.7365 242.986 33.4946 243.697C33.2624 244.416 33.1464 245.165 33.1464 245.942C33.1464 246.969 33.364 247.79 33.7994 248.404C34.2347 249.018 34.8054 249.479 35.5116 249.786C36.2275 250.093 37.0014 250.295 37.8334 250.391C38.6653 250.496 39.478 250.549 40.2712 250.549C40.6292 250.549 41.1612 250.482 41.8674 250.348C42.5736 250.213 43.3379 250.036 44.1601 249.815C44.9921 249.594 45.7854 249.35 46.5399 249.081C47.2945 248.822 47.9136 248.563 48.3973 248.303C48.8907 248.044 49.1374 247.814 49.1374 247.612C49.1374 247.046 48.2329 246.72 46.4238 246.633C45.8918 246.605 45.3452 246.557 44.7841 246.489C44.2327 246.422 43.7635 246.274 43.3766 246.043C42.9993 245.822 42.8106 245.463 42.8106 244.963C42.8106 244.618 42.8977 244.258 43.0718 243.884C43.246 243.519 43.4249 243.197 43.6087 242.919C44.7212 241.182 46.0756 240.107 47.6718 239.694C47.9813 239.618 48.2716 239.574 48.5424 239.565C48.823 239.546 49.1229 239.536 49.4421 239.536H51.0528C51.5849 239.536 51.909 239.67 52.0251 239.939C52.1508 240.208 52.2137 240.505 52.2137 240.832ZM42.8977 256.61C42.8977 256.658 42.8348 256.788 42.7091 256.999C42.593 257.22 42.4479 257.46 42.2737 257.719C42.1093 257.978 41.9545 258.199 41.8094 258.381C41.6643 258.573 41.5627 258.669 41.5046 258.669C41.4756 258.669 41.3692 258.606 41.1854 258.482C41.0113 258.357 40.8081 258.208 40.5759 258.035C40.3534 257.872 40.1551 257.724 39.981 257.589C39.8165 257.455 39.7246 257.383 39.7053 257.373C39.6472 257.325 39.594 257.301 39.5457 257.301C39.4973 257.301 39.4489 257.325 39.4006 257.373C39.3812 257.392 39.2796 257.536 39.0958 257.805C38.912 258.074 38.7186 258.338 38.5154 258.597C38.3219 258.866 38.1962 259 38.1381 259C38.0994 259 37.9785 258.938 37.7753 258.813C37.5819 258.688 37.3642 258.539 37.1224 258.367C36.8902 258.194 36.687 258.031 36.5129 257.877C36.3388 257.733 36.2517 257.637 36.2517 257.589C36.2517 257.532 36.3146 257.397 36.4403 257.186C36.5758 256.975 36.7257 256.74 36.8902 256.481C37.0643 256.231 37.2239 256.01 37.369 255.818C37.5141 255.636 37.6012 255.545 37.6302 255.545C37.7173 255.545 37.8963 255.646 38.1671 255.847C38.438 256.049 38.6992 256.25 38.9507 256.452C39.2022 256.663 39.3377 256.783 39.357 256.812C39.4441 256.898 39.507 256.941 39.5457 256.941C39.6037 256.941 39.6666 256.889 39.7343 256.783C39.7537 256.754 39.8552 256.605 40.039 256.337C40.2325 256.078 40.426 255.818 40.6195 255.559C40.8226 255.3 40.9436 255.171 40.9823 255.171C41.0306 255.171 41.1515 255.238 41.345 255.372C41.5482 255.506 41.7707 255.66 42.0125 255.833C42.2544 256.015 42.4624 256.183 42.6365 256.337C42.8106 256.49 42.8977 256.581 42.8977 256.61Z" fill="white"/>
<path d="M74.2122 240.832C74.2122 241.158 74.1494 241.46 74.0236 241.739C73.9075 242.007 73.5883 242.142 73.0659 242.142H72.2823C70.5313 242.142 69.1383 242.084 68.1031 241.969C67.068 241.844 66.299 241.619 65.7959 241.292C65.2348 240.908 64.9543 240.294 64.9543 239.45C64.9543 239.171 64.9881 238.898 65.0559 238.629C65.1236 238.36 65.1913 238.077 65.259 237.78H64.8817C63.2372 237.78 61.8344 237.996 60.6736 238.427C59.5224 238.859 58.4631 239.344 57.4957 239.882C56.4993 240.438 55.527 240.956 54.579 241.436C53.6309 241.907 52.5523 242.142 51.343 242.142H50.574C50.0419 242.142 49.7178 242.007 49.6017 241.739C49.476 241.46 49.4131 241.158 49.4131 240.832C49.4131 240.505 49.476 240.208 49.6017 239.939C49.7178 239.67 50.0419 239.536 50.574 239.536H51.343C52.7361 239.536 53.9163 239.392 54.8837 239.104C55.8511 238.816 56.7459 238.504 57.5682 238.168C58.0809 237.957 58.5791 237.76 59.0628 237.578C59.5562 237.396 60.0689 237.247 60.601 237.132C60.2237 236.978 59.7062 236.762 59.0483 236.484C58.3905 236.206 57.6746 235.951 56.9007 235.721C56.1268 235.491 55.3626 235.375 54.608 235.375C54.0276 235.375 53.5342 235.457 53.1279 235.62C52.7313 235.783 52.5088 235.865 52.4604 235.865C52.354 235.865 52.3008 235.822 52.3008 235.735C52.3008 235.131 52.5233 234.588 52.9683 234.109C53.4229 233.619 53.8873 233.25 54.3613 233C54.6419 232.837 54.9466 232.736 55.2755 232.698C55.6141 232.659 55.885 232.64 56.0881 232.64C56.5138 232.64 57.012 232.741 57.5827 232.942C58.1632 233.144 58.7678 233.389 59.3966 233.677C60.0351 233.955 60.659 234.224 61.2685 234.483C61.878 234.742 62.4294 234.929 62.9227 235.044C63.6773 235.217 64.3642 235.347 64.9833 235.433C65.6121 235.51 66.299 235.558 67.0438 235.577C67.7887 235.596 68.7126 235.606 69.8154 235.606C69.8638 235.606 69.8977 235.63 69.917 235.678C69.9364 235.726 69.946 235.759 69.946 235.779C69.946 235.807 69.9122 235.951 69.8445 236.21C69.7767 236.46 69.7042 236.729 69.6268 237.017C69.5494 237.295 69.4865 237.492 69.4381 237.607C69.3898 237.751 68.3692 237.823 66.3763 237.823C66.3667 237.852 66.357 237.895 66.3473 237.952C66.3473 238 66.3473 238.048 66.3473 238.096C66.3473 238.48 66.623 238.783 67.1744 239.003C67.5904 239.176 68.0983 239.301 68.6981 239.378C69.3075 239.454 69.9315 239.502 70.57 239.522C71.2182 239.531 71.7889 239.536 72.2823 239.536H73.0659C73.5883 239.536 73.9075 239.67 74.0236 239.939C74.1494 240.208 74.2122 240.505 74.2122 240.832ZM63.4597 245.626C63.4597 245.674 63.3968 245.803 63.271 246.014C63.1549 246.235 63.0098 246.47 62.8357 246.72C62.6712 246.979 62.5116 247.2 62.3568 247.382C62.202 247.574 62.0956 247.67 62.0376 247.67C62.0086 247.67 61.8925 247.608 61.6893 247.483C61.4958 247.358 61.2782 247.209 61.0363 247.037C60.7945 246.873 60.5817 246.715 60.3979 246.561C60.2237 246.417 60.1367 246.322 60.1367 246.274C60.1367 246.216 60.1995 246.082 60.3253 245.87C60.4511 245.659 60.601 245.424 60.7751 245.165C60.9493 244.915 61.1089 244.695 61.254 244.503C61.4088 244.32 61.5055 244.229 61.5442 244.229C61.6023 244.229 61.7329 244.292 61.936 244.416C62.1392 244.551 62.3568 244.704 62.589 244.877C62.8212 245.05 63.0243 245.208 63.1985 245.352C63.3726 245.506 63.4597 245.597 63.4597 245.626Z" fill="white"/>
<path d="M78.0141 236.628C78.0141 238.039 77.8061 239.147 77.3901 239.953C76.9741 240.75 76.4082 241.316 75.6923 241.652C74.9861 241.979 74.1929 242.142 73.3126 242.142H72.5435C72.0114 242.142 71.6873 242.007 71.5713 241.739C71.4455 241.46 71.3826 241.158 71.3826 240.832C71.3826 240.505 71.4455 240.208 71.5713 239.939C71.6873 239.67 72.0114 239.536 72.5435 239.536H73.3126C73.9123 239.536 74.4444 239.488 74.9088 239.392C75.3828 239.286 75.7842 239.157 76.1132 239.003C76.4131 238.859 76.6356 238.701 76.7807 238.528C76.9354 238.346 77.0128 238.207 77.0128 238.111C77.0128 238.024 76.9403 237.847 76.7952 237.578C76.6597 237.3 76.5001 236.993 76.3163 236.657C76.1422 236.321 75.9826 236.018 75.8375 235.75C75.702 235.481 75.6343 235.313 75.6343 235.246C75.6343 235.15 75.6972 234.977 75.8229 234.728C75.9584 234.478 76.1132 234.209 76.2873 233.921C76.4614 233.624 76.621 233.36 76.7662 233.13C76.9209 232.89 77.0177 232.741 77.0564 232.683C77.3756 233.374 77.6126 234.037 77.7674 234.67C77.9319 235.303 78.0141 235.956 78.0141 236.628ZM77.9851 228.537C77.9851 228.585 77.9222 228.719 77.7964 228.94C77.6803 229.151 77.5352 229.386 77.3611 229.646C77.1966 229.895 77.037 230.116 76.8822 230.308C76.7275 230.49 76.621 230.581 76.563 230.581C76.534 230.581 76.4179 230.519 76.2147 230.394C76.0213 230.269 75.8036 230.126 75.5617 229.962C75.3199 229.79 75.1071 229.631 74.9233 229.487C74.7491 229.334 74.6621 229.233 74.6621 229.185C74.6621 229.127 74.725 228.993 74.8507 228.782C74.9765 228.571 75.1264 228.34 75.3006 228.091C75.4747 227.832 75.6343 227.611 75.7794 227.429C75.9342 227.237 76.0309 227.141 76.0696 227.141C76.1277 227.141 76.2583 227.208 76.4614 227.342C76.6646 227.467 76.8822 227.616 77.1144 227.788C77.3466 227.961 77.5497 228.124 77.7239 228.278C77.898 228.422 77.9851 228.508 77.9851 228.537Z" fill="white"/>
<path d="M87.1415 241.12C87.1415 242.099 86.9528 243.111 86.5755 244.157C86.2079 245.213 85.7146 246.197 85.0954 247.109C84.486 248.03 83.8088 248.788 83.0639 249.383C82.6189 249.748 82.14 250.007 81.6273 250.161C81.1243 250.314 80.6406 250.405 80.1762 250.434C79.7215 250.463 79.3443 250.477 79.0444 250.477C78.5413 250.477 77.9996 250.381 77.4191 250.189C76.8387 250.007 76.3453 249.81 75.939 249.599C75.5231 249.398 75.3151 249.278 75.3151 249.239C75.3151 249.191 75.3392 249.138 75.3876 249.081C75.4263 249.023 75.465 248.994 75.5037 248.994C75.5327 248.994 75.6972 249.014 75.9971 249.052C76.2873 249.09 76.6114 249.129 76.9693 249.167C77.3176 249.215 77.5884 249.239 77.7819 249.239C78.5849 249.239 79.4603 248.999 80.4084 248.519C81.3564 248.049 82.3432 247.334 83.3686 246.374C84.2973 245.52 85.0084 244.7 85.5017 243.913C85.9951 243.126 86.2418 242.478 86.2418 241.969C86.2418 241.777 86.1499 241.465 85.9661 241.033C85.7823 240.592 85.5694 240.121 85.3276 239.622C85.0954 239.123 84.8874 238.677 84.7036 238.284C84.5198 237.88 84.4279 237.616 84.4279 237.492C84.4279 237.386 84.4811 237.209 84.5875 236.959C84.6939 236.7 84.8149 236.422 84.9503 236.124C85.0954 235.827 85.2309 235.567 85.3566 235.347C85.4824 235.116 85.5598 234.987 85.5888 234.958C86.1886 235.918 86.5949 236.954 86.8077 238.068C87.0302 239.181 87.1415 240.198 87.1415 241.12ZM87.156 230.826C87.156 230.874 87.0931 231.008 86.9673 231.229C86.8512 231.44 86.7061 231.676 86.532 231.935C86.3675 232.184 86.2079 232.405 86.0531 232.597C85.8984 232.779 85.7919 232.87 85.7339 232.87C85.7049 232.87 85.5888 232.808 85.3856 232.683C85.1922 232.559 84.9745 232.415 84.7326 232.251C84.4908 232.079 84.278 231.92 84.0942 231.776C83.92 231.623 83.833 231.522 83.833 231.474C83.833 231.416 83.8958 231.282 84.0216 231.071C84.1474 230.86 84.2973 230.629 84.4714 230.38C84.6456 230.121 84.8052 229.9 84.9503 229.718C85.1051 229.526 85.2018 229.43 85.2405 229.43C85.2986 229.43 85.4292 229.497 85.6323 229.631C85.8355 229.756 86.0531 229.905 86.2853 230.078C86.5175 230.25 86.7206 230.413 86.8948 230.567C87.0689 230.711 87.156 230.797 87.156 230.826Z" fill="white"/>
<path d="M100.462 240.832C100.462 241.158 100.4 241.46 100.274 241.739C100.158 242.007 99.8337 242.142 99.3016 242.142H98.518C98.4213 242.142 98.3197 242.137 98.2133 242.127C98.1165 242.108 98.0005 242.099 97.865 242.099C97.7393 243.279 97.4974 244.431 97.1395 245.554C96.7912 246.686 96.1382 247.833 95.1805 248.994C94.6484 249.628 94.0341 250.146 93.3376 250.549C92.6508 250.952 91.8188 251.154 90.8417 251.154C90.3193 251.154 89.7292 251.087 89.0714 250.952C88.4233 250.828 87.8622 250.688 87.3881 250.535C86.9141 250.381 86.6771 250.261 86.6771 250.175C86.6771 250.098 86.7158 250.031 86.7932 249.973C86.8706 249.916 86.9431 249.887 87.0109 249.887C87.0592 249.887 87.214 249.906 87.4752 249.945C87.7267 249.993 87.9444 250.017 88.1282 250.017C88.9505 250.017 89.9421 249.781 91.1029 249.311C92.2638 248.841 93.4053 248.054 94.5275 246.95C95.137 246.336 95.6062 245.741 95.9351 245.165C96.2737 244.599 96.5058 244.109 96.6316 243.697C96.767 243.284 96.8347 243.025 96.8347 242.919C96.8347 242.833 96.7573 242.67 96.6026 242.43C96.4478 242.199 96.264 241.945 96.0512 241.667C95.848 241.388 95.669 241.139 95.5142 240.918C95.3595 240.688 95.2821 240.539 95.2821 240.472C95.2821 240.424 95.3546 240.237 95.4997 239.91C95.6545 239.574 95.8093 239.234 95.9641 238.888C96.1285 238.533 96.2301 238.307 96.2688 238.212H96.3994C96.68 238.528 96.9895 238.831 97.3281 239.118C97.6764 239.397 98.073 239.536 98.518 239.536H99.3016C99.8337 239.536 100.158 239.67 100.274 239.939C100.4 240.208 100.462 240.505 100.462 240.832Z" fill="white"/>
<path d="M108.197 240.832C108.197 241.158 108.134 241.46 108.008 241.739C107.892 242.007 107.568 242.142 107.036 242.142H106.223C105.836 242.142 105.507 242.079 105.237 241.955C104.966 241.83 104.719 241.647 104.496 241.408C104.351 241.244 104.182 241.019 103.989 240.731C103.805 240.443 103.66 240.174 103.553 239.925C103.06 240.481 102.528 240.99 101.957 241.451C101.386 241.911 100.583 242.142 99.5483 242.142H98.7792C98.2471 242.142 97.9231 242.007 97.807 241.739C97.6812 241.46 97.6183 241.158 97.6183 240.832C97.6183 240.505 97.6812 240.208 97.807 239.939C97.9231 239.67 98.2471 239.536 98.7792 239.536H99.5483C100.496 239.536 101.261 239.402 101.841 239.133C102.421 238.855 102.871 238.533 103.191 238.168C103.51 237.804 103.752 237.487 103.916 237.218C104.081 236.94 104.216 236.801 104.322 236.801C104.409 236.801 104.467 236.921 104.496 237.161C104.535 237.391 104.608 237.655 104.714 237.952C104.821 238.288 104.995 238.639 105.237 239.003C105.478 239.358 105.807 239.536 106.223 239.536H107.036C107.568 239.536 107.892 239.67 108.008 239.939C108.134 240.208 108.197 240.505 108.197 240.832ZM104.555 245.626C104.555 245.674 104.492 245.803 104.366 246.014C104.25 246.235 104.105 246.47 103.931 246.72C103.766 246.979 103.606 247.2 103.452 247.382C103.297 247.574 103.191 247.67 103.132 247.67C103.103 247.67 102.987 247.608 102.784 247.483C102.591 247.358 102.373 247.209 102.131 247.037C101.889 246.873 101.677 246.715 101.493 246.561C101.319 246.417 101.232 246.322 101.232 246.274C101.232 246.216 101.294 246.082 101.42 245.87C101.546 245.659 101.696 245.424 101.87 245.165C102.044 244.915 102.204 244.695 102.349 244.503C102.504 244.32 102.6 244.229 102.639 244.229C102.697 244.229 102.828 244.292 103.031 244.416C103.234 244.551 103.452 244.704 103.684 244.877C103.916 245.05 104.119 245.208 104.293 245.352C104.467 245.506 104.555 245.597 104.555 245.626Z" fill="white"/>
<path d="M111.984 234.396C111.984 234.819 111.945 235.337 111.868 235.951C111.791 236.556 111.718 237.06 111.65 237.463C111.583 237.856 111.486 238.317 111.36 238.845C111.234 239.373 111.026 239.891 110.736 240.4C110.446 240.899 110.025 241.316 109.474 241.652C108.922 241.979 108.187 242.142 107.268 242.142H106.499C105.967 242.142 105.643 242.007 105.527 241.739C105.401 241.46 105.338 241.158 105.338 240.832C105.338 240.505 105.401 240.208 105.527 239.939C105.643 239.67 105.967 239.536 106.499 239.536H107.268C107.781 239.536 108.327 239.43 108.908 239.219C109.488 239.008 109.982 238.696 110.388 238.284C110.794 237.861 110.997 237.353 110.997 236.757C110.997 236.441 110.93 235.855 110.794 235.001C110.659 234.137 110.49 233.134 110.286 231.992C110.083 230.841 109.88 229.66 109.677 228.451C109.483 227.241 109.319 226.114 109.184 225.068C109.048 224.021 108.98 223.186 108.98 222.563C108.98 222.284 109.043 221.944 109.169 221.54C109.295 221.137 109.459 220.782 109.662 220.475C109.866 220.158 110.074 220 110.286 220C110.306 220 110.398 220.125 110.562 220.374C110.727 220.624 110.91 220.917 111.113 221.252C111.317 221.588 111.496 221.891 111.65 222.159C111.805 222.428 111.883 222.577 111.883 222.606C111.883 222.644 111.771 222.755 111.549 222.937C111.336 223.119 111.118 223.369 110.896 223.685C110.683 224.002 110.577 224.386 110.577 224.837C110.577 225.394 110.644 226.09 110.78 226.925C110.925 227.76 111.089 228.643 111.273 229.574C111.467 230.495 111.631 231.383 111.766 232.237C111.912 233.082 111.984 233.801 111.984 234.396Z" fill="white"/>
<path d="M118.398 237.175C118.398 237.309 118.369 237.568 118.311 237.952C118.263 238.336 118.195 238.773 118.108 239.262C118.03 239.752 117.938 240.227 117.832 240.688C117.735 241.139 117.639 241.518 117.542 241.825C117.445 242.123 117.358 242.271 117.281 242.271C117.039 242.271 116.918 242.156 116.918 241.926C116.918 241.868 116.961 241.638 117.048 241.235C117.145 240.832 117.194 240.318 117.194 239.694C117.194 239.301 117.15 238.715 117.063 237.938C116.986 237.151 116.884 236.258 116.758 235.26C116.632 234.262 116.497 233.24 116.352 232.194C116.207 231.138 116.071 230.145 115.946 229.214C115.82 228.273 115.713 227.477 115.626 226.824C115.549 226.162 115.51 225.735 115.51 225.543C115.51 225.226 115.559 224.847 115.655 224.405C115.752 223.964 115.868 223.527 116.004 223.095C116.139 222.663 116.275 222.299 116.41 222.001C116.555 221.694 116.671 221.526 116.758 221.497C116.816 221.584 116.869 221.828 116.918 222.231C116.966 222.635 116.99 222.946 116.99 223.167V224.362L118.398 237.175Z" fill="white"/>
<path d="M145.519 240.832C145.519 241.158 145.456 241.46 145.33 241.739C145.214 242.007 144.89 242.142 144.358 242.142H143.589C142.631 242.142 141.901 241.988 141.398 241.681C140.895 241.364 140.488 240.884 140.179 240.241C139.869 239.589 139.526 238.754 139.149 237.736C138.791 238.351 138.447 238.893 138.118 239.363C137.789 239.824 137.402 240.208 136.957 240.515C136.309 240.956 135.608 241.278 134.853 241.48C134.099 241.671 133.335 241.767 132.561 241.767C132.067 241.767 131.574 241.71 131.08 241.595C130.587 241.47 130.176 241.268 129.847 240.99C129.518 240.702 129.354 240.313 129.354 239.824C129.354 239.728 129.392 239.541 129.47 239.262C129.557 238.975 129.658 238.667 129.775 238.341C129.891 238.015 130.002 237.732 130.108 237.492C130.224 237.252 130.311 237.132 130.369 237.132C130.457 237.132 130.524 237.237 130.573 237.449C130.621 237.65 130.665 237.804 130.703 237.909C130.79 238.149 131.022 238.403 131.4 238.672C131.787 238.941 132.474 239.075 133.46 239.075C134.108 239.075 134.742 239.047 135.361 238.989C135.99 238.922 136.556 238.783 137.059 238.571C137.572 238.351 137.978 238.015 138.278 237.564C138.578 237.103 138.728 236.479 138.728 235.692C138.641 234.819 138.5 233.969 138.307 233.144C138.113 232.309 137.934 231.532 137.77 230.812C137.606 230.082 137.523 229.439 137.523 228.883C137.523 228.758 137.572 228.561 137.668 228.292C137.775 228.024 137.896 227.745 138.031 227.457C138.167 227.169 138.292 226.925 138.408 226.723C138.534 226.512 138.612 226.406 138.641 226.406C138.718 226.406 138.766 226.44 138.786 226.507C138.815 226.565 138.834 226.718 138.844 226.968C138.999 227.995 139.173 229.099 139.366 230.279C139.569 231.45 139.782 232.592 140.005 233.705C140.237 234.809 140.469 235.779 140.701 236.614C140.933 237.449 141.151 238.039 141.354 238.384C141.586 238.768 141.906 239.056 142.312 239.248C142.728 239.44 143.154 239.536 143.589 239.536H144.358C144.89 239.536 145.214 239.67 145.33 239.939C145.456 240.208 145.519 240.505 145.519 240.832Z" fill="white"/>
<path d="M149.364 234.396C149.364 234.819 149.326 235.337 149.248 235.951C149.171 236.556 149.098 237.06 149.03 237.463C148.963 237.856 148.866 238.317 148.74 238.845C148.615 239.373 148.407 239.891 148.116 240.4C147.826 240.899 147.405 241.316 146.854 241.652C146.302 241.979 145.567 242.142 144.648 242.142H143.879C143.347 242.142 143.023 242.007 142.907 241.739C142.781 241.46 142.718 241.158 142.718 240.832C142.718 240.505 142.781 240.208 142.907 239.939C143.023 239.67 143.347 239.536 143.879 239.536H144.648C145.161 239.536 145.707 239.43 146.288 239.219C146.868 239.008 147.362 238.696 147.768 238.284C148.174 237.861 148.377 237.353 148.377 236.757C148.377 236.441 148.31 235.855 148.174 235.001C148.039 234.137 147.87 233.134 147.666 231.992C147.463 230.841 147.26 229.66 147.057 228.451C146.864 227.241 146.699 226.114 146.564 225.068C146.428 224.021 146.36 223.186 146.36 222.563C146.36 222.284 146.423 221.944 146.549 221.54C146.675 221.137 146.839 220.782 147.042 220.475C147.246 220.158 147.454 220 147.666 220C147.686 220 147.778 220.125 147.942 220.374C148.107 220.624 148.29 220.917 148.494 221.252C148.697 221.588 148.876 221.891 149.03 222.159C149.185 222.428 149.263 222.577 149.263 222.606C149.263 222.644 149.151 222.755 148.929 222.937C148.716 223.119 148.498 223.369 148.276 223.685C148.063 224.002 147.957 224.386 147.957 224.837C147.957 225.394 148.024 226.09 148.16 226.925C148.305 227.76 148.469 228.643 148.653 229.574C148.847 230.495 149.011 231.383 149.147 232.237C149.292 233.082 149.364 233.801 149.364 234.396Z" fill="white"/>
<path d="M161.931 240.832C161.931 241.158 161.868 241.46 161.742 241.739C161.626 242.007 161.307 242.142 160.784 242.142L158.796 242.185C158.7 242.809 158.492 243.553 158.172 244.416C157.853 245.29 157.452 246.168 156.968 247.051C156.494 247.944 155.957 248.731 155.357 249.412C154.622 250.228 153.892 250.808 153.166 251.154C152.441 251.509 151.705 251.687 150.96 251.687C150.544 251.687 150.066 251.61 149.524 251.456C148.992 251.303 148.474 251.12 147.971 250.909C147.468 250.698 147.052 250.501 146.723 250.319C146.385 250.137 146.215 250.021 146.215 249.973C146.215 249.762 146.327 249.657 146.549 249.657C146.743 249.657 147.086 249.724 147.579 249.858C148.063 249.993 148.585 250.06 149.147 250.06C150.037 250.06 150.951 249.839 151.889 249.398C152.837 248.966 153.727 248.38 154.559 247.641C155.391 246.902 156.092 246.062 156.663 245.122C157.244 244.191 157.621 243.226 157.795 242.228C156.46 242.094 155.372 241.892 154.53 241.623C153.688 241.355 153.268 240.817 153.268 240.011C153.268 239.733 153.369 239.315 153.572 238.759C153.776 238.202 154.037 237.631 154.356 237.045C154.685 236.45 155.028 235.946 155.386 235.534C155.754 235.121 156.102 234.915 156.431 234.915C156.799 234.915 157.132 235.078 157.432 235.404C157.742 235.721 158.008 236.124 158.23 236.614C158.453 237.103 158.622 237.612 158.738 238.14C158.864 238.667 158.927 239.133 158.927 239.536H160.784C161.307 239.536 161.626 239.67 161.742 239.939C161.868 240.208 161.931 240.505 161.931 240.832ZM157.708 239.493C157.708 239.234 157.602 238.951 157.389 238.643C157.176 238.336 156.92 238.077 156.62 237.866C156.32 237.645 156.039 237.535 155.778 237.535C155.507 237.535 155.299 237.64 155.154 237.852C155.019 238.063 154.951 238.307 154.951 238.586C154.951 238.778 155.178 238.975 155.633 239.176C156.088 239.368 156.779 239.474 157.708 239.493Z" fill="white"/>
<path d="M171 237.449C171 237.688 170.903 238.024 170.71 238.456C170.516 238.879 170.284 239.267 170.013 239.622C169.742 239.968 169.481 240.141 169.23 240.141C168.93 240.141 168.533 240.045 168.04 239.853C167.546 239.661 167.034 239.426 166.502 239.147C165.979 238.869 165.51 238.6 165.094 238.341C164.601 238.936 164.122 239.55 163.657 240.184C163.193 240.808 162.724 241.288 162.25 241.623C162.027 241.777 161.819 241.902 161.626 241.998C161.432 242.094 161.239 242.142 161.046 242.142H160.276C159.744 242.142 159.42 242.007 159.304 241.739C159.178 241.46 159.116 241.158 159.116 240.832C159.116 240.505 159.178 240.208 159.304 239.939C159.42 239.67 159.744 239.536 160.276 239.536H161.046C161.848 239.536 162.521 239.31 163.063 238.859C163.614 238.399 164.093 237.828 164.499 237.146C164.915 236.455 165.317 235.769 165.704 235.087C166.09 234.435 166.482 233.849 166.879 233.331C167.276 232.813 167.745 232.554 168.286 232.554C168.606 232.554 168.881 232.621 169.114 232.755C169.346 232.88 169.568 233.115 169.781 233.461C170.013 233.845 170.221 234.296 170.405 234.814C170.589 235.323 170.734 235.817 170.84 236.297C170.947 236.777 171 237.161 171 237.449ZM168.794 236.498C168.794 236.191 168.649 235.85 168.359 235.476C168.069 235.102 167.745 234.915 167.387 234.915C167.106 234.915 166.869 235.011 166.676 235.203C166.492 235.395 166.4 235.615 166.4 235.865C166.4 235.903 166.415 235.951 166.444 236.009C166.473 236.066 166.54 236.129 166.647 236.196C166.831 236.292 167.063 236.388 167.343 236.484C167.633 236.58 167.9 236.657 168.141 236.714C168.383 236.772 168.528 236.801 168.577 236.801C168.722 236.801 168.794 236.7 168.794 236.498Z" fill="white"/>
<path d="M52.2137 240.832C52.2137 241.158 52.1508 241.46 52.0251 241.739C51.909 242.007 51.5849 242.142 51.0528 242.142H48.8036C48.4167 242.142 48.0007 242.151 47.5557 242.171C47.1107 242.199 46.6947 242.271 46.3078 242.386C45.8337 242.521 45.4468 242.732 45.1469 243.02C44.8567 243.308 44.7116 243.615 44.7116 243.941C44.7116 244.268 44.8905 244.469 45.2485 244.546C45.6161 244.632 46.0659 244.714 46.598 244.791C47.0333 244.858 47.5218 244.987 48.0636 245.179C48.615 245.381 49.089 245.659 49.4856 246.014C49.892 246.379 50.0951 246.84 50.0951 247.396C50.0951 248.126 49.8436 248.803 49.3405 249.426C48.8472 250.05 48.1893 250.612 47.3671 251.111C46.5448 251.61 45.6354 252.032 44.639 252.378C43.6426 252.733 42.6365 253.001 41.6207 253.184C40.6146 253.376 39.6811 253.472 38.8201 253.472C36.6822 253.472 35.0086 252.925 33.7994 251.831C32.5998 250.736 32 249.249 32 247.368C32 246.6 32.1016 245.832 32.3047 245.064C32.5176 244.306 32.7594 243.61 33.0303 242.977C33.3108 242.343 33.5672 241.835 33.7994 241.451C34.0412 241.067 34.1911 240.875 34.2492 240.875C34.4717 240.875 34.5829 240.956 34.5829 241.12C34.5829 241.177 34.462 241.446 34.2202 241.926C33.9783 242.396 33.7365 242.986 33.4946 243.697C33.2624 244.416 33.1464 245.165 33.1464 245.942C33.1464 246.969 33.364 247.79 33.7994 248.404C34.2347 249.018 34.8054 249.479 35.5116 249.786C36.2275 250.093 37.0014 250.295 37.8334 250.391C38.6653 250.496 39.478 250.549 40.2712 250.549C40.6292 250.549 41.1612 250.482 41.8674 250.348C42.5736 250.213 43.3379 250.036 44.1601 249.815C44.9921 249.594 45.7854 249.35 46.5399 249.081C47.2945 248.822 47.9136 248.563 48.3973 248.303C48.8907 248.044 49.1374 247.814 49.1374 247.612C49.1374 247.046 48.2329 246.72 46.4238 246.633C45.8918 246.605 45.3452 246.557 44.7841 246.489C44.2327 246.422 43.7635 246.274 43.3766 246.043C42.9993 245.822 42.8106 245.463 42.8106 244.963C42.8106 244.618 42.8977 244.258 43.0718 243.884C43.246 243.519 43.4249 243.197 43.6087 242.919C44.7212 241.182 46.0756 240.107 47.6718 239.694C47.9813 239.618 48.2716 239.574 48.5424 239.565C48.823 239.546 49.1229 239.536 49.4421 239.536H51.0528C51.5849 239.536 51.909 239.67 52.0251 239.939C52.1508 240.208 52.2137 240.505 52.2137 240.832ZM42.8977 256.61C42.8977 256.658 42.8348 256.788 42.7091 256.999C42.593 257.22 42.4479 257.46 42.2737 257.719C42.1093 257.978 41.9545 258.199 41.8094 258.381C41.6643 258.573 41.5627 258.669 41.5046 258.669C41.4756 258.669 41.3692 258.606 41.1854 258.482C41.0113 258.357 40.8081 258.208 40.5759 258.035C40.3534 257.872 40.1551 257.724 39.981 257.589C39.8165 257.455 39.7246 257.383 39.7053 257.373C39.6472 257.325 39.594 257.301 39.5457 257.301C39.4973 257.301 39.4489 257.325 39.4006 257.373C39.3812 257.392 39.2796 257.536 39.0958 257.805C38.912 258.074 38.7186 258.338 38.5154 258.597C38.3219 258.866 38.1962 259 38.1381 259C38.0994 259 37.9785 258.938 37.7753 258.813C37.5819 258.688 37.3642 258.539 37.1224 258.367C36.8902 258.194 36.687 258.031 36.5129 257.877C36.3388 257.733 36.2517 257.637 36.2517 257.589C36.2517 257.532 36.3146 257.397 36.4403 257.186C36.5758 256.975 36.7257 256.74 36.8902 256.481C37.0643 256.231 37.2239 256.01 37.369 255.818C37.5141 255.636 37.6012 255.545 37.6302 255.545C37.7173 255.545 37.8963 255.646 38.1671 255.847C38.438 256.049 38.6992 256.25 38.9507 256.452C39.2022 256.663 39.3377 256.783 39.357 256.812C39.4441 256.898 39.507 256.941 39.5457 256.941C39.6037 256.941 39.6666 256.889 39.7343 256.783C39.7537 256.754 39.8552 256.605 40.039 256.337C40.2325 256.078 40.426 255.818 40.6195 255.559C40.8226 255.3 40.9436 255.171 40.9823 255.171C41.0306 255.171 41.1515 255.238 41.345 255.372C41.5482 255.506 41.7707 255.66 42.0125 255.833C42.2544 256.015 42.4624 256.183 42.6365 256.337C42.8106 256.49 42.8977 256.581 42.8977 256.61Z" stroke="white" stroke-width="0.6" mask="url(#path-2-outside-1_554_958)"/>
<path d="M74.2122 240.832C74.2122 241.158 74.1494 241.46 74.0236 241.739C73.9075 242.007 73.5883 242.142 73.0659 242.142H72.2823C70.5313 242.142 69.1383 242.084 68.1031 241.969C67.068 241.844 66.299 241.619 65.7959 241.292C65.2348 240.908 64.9543 240.294 64.9543 239.45C64.9543 239.171 64.9881 238.898 65.0559 238.629C65.1236 238.36 65.1913 238.077 65.259 237.78H64.8817C63.2372 237.78 61.8344 237.996 60.6736 238.427C59.5224 238.859 58.4631 239.344 57.4957 239.882C56.4993 240.438 55.527 240.956 54.579 241.436C53.6309 241.907 52.5523 242.142 51.343 242.142H50.574C50.0419 242.142 49.7178 242.007 49.6017 241.739C49.476 241.46 49.4131 241.158 49.4131 240.832C49.4131 240.505 49.476 240.208 49.6017 239.939C49.7178 239.67 50.0419 239.536 50.574 239.536H51.343C52.7361 239.536 53.9163 239.392 54.8837 239.104C55.8511 238.816 56.7459 238.504 57.5682 238.168C58.0809 237.957 58.5791 237.76 59.0628 237.578C59.5562 237.396 60.0689 237.247 60.601 237.132C60.2237 236.978 59.7062 236.762 59.0483 236.484C58.3905 236.206 57.6746 235.951 56.9007 235.721C56.1268 235.491 55.3626 235.375 54.608 235.375C54.0276 235.375 53.5342 235.457 53.1279 235.62C52.7313 235.783 52.5088 235.865 52.4604 235.865C52.354 235.865 52.3008 235.822 52.3008 235.735C52.3008 235.131 52.5233 234.588 52.9683 234.109C53.4229 233.619 53.8873 233.25 54.3613 233C54.6419 232.837 54.9466 232.736 55.2755 232.698C55.6141 232.659 55.885 232.64 56.0881 232.64C56.5138 232.64 57.012 232.741 57.5827 232.942C58.1632 233.144 58.7678 233.389 59.3966 233.677C60.0351 233.955 60.659 234.224 61.2685 234.483C61.878 234.742 62.4294 234.929 62.9227 235.044C63.6773 235.217 64.3642 235.347 64.9833 235.433C65.6121 235.51 66.299 235.558 67.0438 235.577C67.7887 235.596 68.7126 235.606 69.8154 235.606C69.8638 235.606 69.8977 235.63 69.917 235.678C69.9364 235.726 69.946 235.759 69.946 235.779C69.946 235.807 69.9122 235.951 69.8445 236.21C69.7767 236.46 69.7042 236.729 69.6268 237.017C69.5494 237.295 69.4865 237.492 69.4381 237.607C69.3898 237.751 68.3692 237.823 66.3763 237.823C66.3667 237.852 66.357 237.895 66.3473 237.952C66.3473 238 66.3473 238.048 66.3473 238.096C66.3473 238.48 66.623 238.783 67.1744 239.003C67.5904 239.176 68.0983 239.301 68.6981 239.378C69.3075 239.454 69.9315 239.502 70.57 239.522C71.2182 239.531 71.7889 239.536 72.2823 239.536H73.0659C73.5883 239.536 73.9075 239.67 74.0236 239.939C74.1494 240.208 74.2122 240.505 74.2122 240.832ZM63.4597 245.626C63.4597 245.674 63.3968 245.803 63.271 246.014C63.1549 246.235 63.0098 246.47 62.8357 246.72C62.6712 246.979 62.5116 247.2 62.3568 247.382C62.202 247.574 62.0956 247.67 62.0376 247.67C62.0086 247.67 61.8925 247.608 61.6893 247.483C61.4958 247.358 61.2782 247.209 61.0363 247.037C60.7945 246.873 60.5817 246.715 60.3979 246.561C60.2237 246.417 60.1367 246.322 60.1367 246.274C60.1367 246.216 60.1995 246.082 60.3253 245.87C60.4511 245.659 60.601 245.424 60.7751 245.165C60.9493 244.915 61.1089 244.695 61.254 244.503C61.4088 244.32 61.5055 244.229 61.5442 244.229C61.6023 244.229 61.7329 244.292 61.936 244.416C62.1392 244.551 62.3568 244.704 62.589 244.877C62.8212 245.05 63.0243 245.208 63.1985 245.352C63.3726 245.506 63.4597 245.597 63.4597 245.626Z" stroke="white" stroke-width="0.6" mask="url(#path-2-outside-1_554_958)"/>
<path d="M78.0141 236.628C78.0141 238.039 77.8061 239.147 77.3901 239.953C76.9741 240.75 76.4082 241.316 75.6923 241.652C74.9861 241.979 74.1929 242.142 73.3126 242.142H72.5435C72.0114 242.142 71.6873 242.007 71.5713 241.739C71.4455 241.46 71.3826 241.158 71.3826 240.832C71.3826 240.505 71.4455 240.208 71.5713 239.939C71.6873 239.67 72.0114 239.536 72.5435 239.536H73.3126C73.9123 239.536 74.4444 239.488 74.9088 239.392C75.3828 239.286 75.7842 239.157 76.1132 239.003C76.4131 238.859 76.6356 238.701 76.7807 238.528C76.9354 238.346 77.0128 238.207 77.0128 238.111C77.0128 238.024 76.9403 237.847 76.7952 237.578C76.6597 237.3 76.5001 236.993 76.3163 236.657C76.1422 236.321 75.9826 236.018 75.8375 235.75C75.702 235.481 75.6343 235.313 75.6343 235.246C75.6343 235.15 75.6972 234.977 75.8229 234.728C75.9584 234.478 76.1132 234.209 76.2873 233.921C76.4614 233.624 76.621 233.36 76.7662 233.13C76.9209 232.89 77.0177 232.741 77.0564 232.683C77.3756 233.374 77.6126 234.037 77.7674 234.67C77.9319 235.303 78.0141 235.956 78.0141 236.628ZM77.9851 228.537C77.9851 228.585 77.9222 228.719 77.7964 228.94C77.6803 229.151 77.5352 229.386 77.3611 229.646C77.1966 229.895 77.037 230.116 76.8822 230.308C76.7275 230.49 76.621 230.581 76.563 230.581C76.534 230.581 76.4179 230.519 76.2147 230.394C76.0213 230.269 75.8036 230.126 75.5617 229.962C75.3199 229.79 75.1071 229.631 74.9233 229.487C74.7491 229.334 74.6621 229.233 74.6621 229.185C74.6621 229.127 74.725 228.993 74.8507 228.782C74.9765 228.571 75.1264 228.34 75.3006 228.091C75.4747 227.832 75.6343 227.611 75.7794 227.429C75.9342 227.237 76.0309 227.141 76.0696 227.141C76.1277 227.141 76.2583 227.208 76.4614 227.342C76.6646 227.467 76.8822 227.616 77.1144 227.788C77.3466 227.961 77.5497 228.124 77.7239 228.278C77.898 228.422 77.9851 228.508 77.9851 228.537Z" stroke="white" stroke-width="0.6" mask="url(#path-2-outside-1_554_958)"/>
<path d="M87.1415 241.12C87.1415 242.099 86.9528 243.111 86.5755 244.157C86.2079 245.213 85.7146 246.197 85.0954 247.109C84.486 248.03 83.8088 248.788 83.0639 249.383C82.6189 249.748 82.14 250.007 81.6273 250.161C81.1243 250.314 80.6406 250.405 80.1762 250.434C79.7215 250.463 79.3443 250.477 79.0444 250.477C78.5413 250.477 77.9996 250.381 77.4191 250.189C76.8387 250.007 76.3453 249.81 75.939 249.599C75.5231 249.398 75.3151 249.278 75.3151 249.239C75.3151 249.191 75.3392 249.138 75.3876 249.081C75.4263 249.023 75.465 248.994 75.5037 248.994C75.5327 248.994 75.6972 249.014 75.9971 249.052C76.2873 249.09 76.6114 249.129 76.9693 249.167C77.3176 249.215 77.5884 249.239 77.7819 249.239C78.5849 249.239 79.4603 248.999 80.4084 248.519C81.3564 248.049 82.3432 247.334 83.3686 246.374C84.2973 245.52 85.0084 244.7 85.5017 243.913C85.9951 243.126 86.2418 242.478 86.2418 241.969C86.2418 241.777 86.1499 241.465 85.9661 241.033C85.7823 240.592 85.5694 240.121 85.3276 239.622C85.0954 239.123 84.8874 238.677 84.7036 238.284C84.5198 237.88 84.4279 237.616 84.4279 237.492C84.4279 237.386 84.4811 237.209 84.5875 236.959C84.6939 236.7 84.8149 236.422 84.9503 236.124C85.0954 235.827 85.2309 235.567 85.3566 235.347C85.4824 235.116 85.5598 234.987 85.5888 234.958C86.1886 235.918 86.5949 236.954 86.8077 238.068C87.0302 239.181 87.1415 240.198 87.1415 241.12ZM87.156 230.826C87.156 230.874 87.0931 231.008 86.9673 231.229C86.8512 231.44 86.7061 231.676 86.532 231.935C86.3675 232.184 86.2079 232.405 86.0531 232.597C85.8984 232.779 85.7919 232.87 85.7339 232.87C85.7049 232.87 85.5888 232.808 85.3856 232.683C85.1922 232.559 84.9745 232.415 84.7326 232.251C84.4908 232.079 84.278 231.92 84.0942 231.776C83.92 231.623 83.833 231.522 83.833 231.474C83.833 231.416 83.8958 231.282 84.0216 231.071C84.1474 230.86 84.2973 230.629 84.4714 230.38C84.6456 230.121 84.8052 229.9 84.9503 229.718C85.1051 229.526 85.2018 229.43 85.2405 229.43C85.2986 229.43 85.4292 229.497 85.6323 229.631C85.8355 229.756 86.0531 229.905 86.2853 230.078C86.5175 230.25 86.7206 230.413 86.8948 230.567C87.0689 230.711 87.156 230.797 87.156 230.826Z" stroke="white" stroke-width="0.6" mask="url(#path-2-outside-1_554_958)"/>
<path d="M100.462 240.832C100.462 241.158 100.4 241.46 100.274 241.739C100.158 242.007 99.8337 242.142 99.3016 242.142H98.518C98.4213 242.142 98.3197 242.137 98.2133 242.127C98.1165 242.108 98.0005 242.099 97.865 242.099C97.7393 243.279 97.4974 244.431 97.1395 245.554C96.7912 246.686 96.1382 247.833 95.1805 248.994C94.6484 249.628 94.0341 250.146 93.3376 250.549C92.6508 250.952 91.8188 251.154 90.8417 251.154C90.3193 251.154 89.7292 251.087 89.0714 250.952C88.4233 250.828 87.8622 250.688 87.3881 250.535C86.9141 250.381 86.6771 250.261 86.6771 250.175C86.6771 250.098 86.7158 250.031 86.7932 249.973C86.8706 249.916 86.9431 249.887 87.0109 249.887C87.0592 249.887 87.214 249.906 87.4752 249.945C87.7267 249.993 87.9444 250.017 88.1282 250.017C88.9505 250.017 89.9421 249.781 91.1029 249.311C92.2638 248.841 93.4053 248.054 94.5275 246.95C95.137 246.336 95.6062 245.741 95.9351 245.165C96.2737 244.599 96.5058 244.109 96.6316 243.697C96.767 243.284 96.8347 243.025 96.8347 242.919C96.8347 242.833 96.7573 242.67 96.6026 242.43C96.4478 242.199 96.264 241.945 96.0512 241.667C95.848 241.388 95.669 241.139 95.5142 240.918C95.3595 240.688 95.2821 240.539 95.2821 240.472C95.2821 240.424 95.3546 240.237 95.4997 239.91C95.6545 239.574 95.8093 239.234 95.9641 238.888C96.1285 238.533 96.2301 238.307 96.2688 238.212H96.3994C96.68 238.528 96.9895 238.831 97.3281 239.118C97.6764 239.397 98.073 239.536 98.518 239.536H99.3016C99.8337 239.536 100.158 239.67 100.274 239.939C100.4 240.208 100.462 240.505 100.462 240.832Z" stroke="white" stroke-width="0.6" mask="url(#path-2-outside-1_554_958)"/>
<path d="M108.197 240.832C108.197 241.158 108.134 241.46 108.008 241.739C107.892 242.007 107.568 242.142 107.036 242.142H106.223C105.836 242.142 105.507 242.079 105.237 241.955C104.966 241.83 104.719 241.647 104.496 241.408C104.351 241.244 104.182 241.019 103.989 240.731C103.805 240.443 103.66 240.174 103.553 239.925C103.06 240.481 102.528 240.99 101.957 241.451C101.386 241.911 100.583 242.142 99.5483 242.142H98.7792C98.2471 242.142 97.9231 242.007 97.807 241.739C97.6812 241.46 97.6183 241.158 97.6183 240.832C97.6183 240.505 97.6812 240.208 97.807 239.939C97.9231 239.67 98.2471 239.536 98.7792 239.536H99.5483C100.496 239.536 101.261 239.402 101.841 239.133C102.421 238.855 102.871 238.533 103.191 238.168C103.51 237.804 103.752 237.487 103.916 237.218C104.081 236.94 104.216 236.801 104.322 236.801C104.409 236.801 104.467 236.921 104.496 237.161C104.535 237.391 104.608 237.655 104.714 237.952C104.821 238.288 104.995 238.639 105.237 239.003C105.478 239.358 105.807 239.536 106.223 239.536H107.036C107.568 239.536 107.892 239.67 108.008 239.939C108.134 240.208 108.197 240.505 108.197 240.832ZM104.555 245.626C104.555 245.674 104.492 245.803 104.366 246.014C104.25 246.235 104.105 246.47 103.931 246.72C103.766 246.979 103.606 247.2 103.452 247.382C103.297 247.574 103.191 247.67 103.132 247.67C103.103 247.67 102.987 247.608 102.784 247.483C102.591 247.358 102.373 247.209 102.131 247.037C101.889 246.873 101.677 246.715 101.493 246.561C101.319 246.417 101.232 246.322 101.232 246.274C101.232 246.216 101.294 246.082 101.42 245.87C101.546 245.659 101.696 245.424 101.87 245.165C102.044 244.915 102.204 244.695 102.349 244.503C102.504 244.32 102.6 244.229 102.639 244.229C102.697 244.229 102.828 244.292 103.031 244.416C103.234 244.551 103.452 244.704 103.684 244.877C103.916 245.05 104.119 245.208 104.293 245.352C104.467 245.506 104.555 245.597 104.555 245.626Z" stroke="white" stroke-width="0.6" mask="url(#path-2-outside-1_554_958)"/>
<path d="M111.984 234.396C111.984 234.819 111.945 235.337 111.868 235.951C111.791 236.556 111.718 237.06 111.65 237.463C111.583 237.856 111.486 238.317 111.36 238.845C111.234 239.373 111.026 239.891 110.736 240.4C110.446 240.899 110.025 241.316 109.474 241.652C108.922 241.979 108.187 242.142 107.268 242.142H106.499C105.967 242.142 105.643 242.007 105.527 241.739C105.401 241.46 105.338 241.158 105.338 240.832C105.338 240.505 105.401 240.208 105.527 239.939C105.643 239.67 105.967 239.536 106.499 239.536H107.268C107.781 239.536 108.327 239.43 108.908 239.219C109.488 239.008 109.982 238.696 110.388 238.284C110.794 237.861 110.997 237.353 110.997 236.757C110.997 236.441 110.93 235.855 110.794 235.001C110.659 234.137 110.49 233.134 110.286 231.992C110.083 230.841 109.88 229.66 109.677 228.451C109.483 227.241 109.319 226.114 109.184 225.068C109.048 224.021 108.98 223.186 108.98 222.563C108.98 222.284 109.043 221.944 109.169 221.54C109.295 221.137 109.459 220.782 109.662 220.475C109.866 220.158 110.074 220 110.286 220C110.306 220 110.398 220.125 110.562 220.374C110.727 220.624 110.91 220.917 111.113 221.252C111.317 221.588 111.496 221.891 111.65 222.159C111.805 222.428 111.883 222.577 111.883 222.606C111.883 222.644 111.771 222.755 111.549 222.937C111.336 223.119 111.118 223.369 110.896 223.685C110.683 224.002 110.577 224.386 110.577 224.837C110.577 225.394 110.644 226.09 110.78 226.925C110.925 227.76 111.089 228.643 111.273 229.574C111.467 230.495 111.631 231.383 111.766 232.237C111.912 233.082 111.984 233.801 111.984 234.396Z" stroke="white" stroke-width="0.6" mask="url(#path-2-outside-1_554_958)"/>
<path d="M118.398 237.175C118.398 237.309 118.369 237.568 118.311 237.952C118.263 238.336 118.195 238.773 118.108 239.262C118.03 239.752 117.938 240.227 117.832 240.688C117.735 241.139 117.639 241.518 117.542 241.825C117.445 242.123 117.358 242.271 117.281 242.271C117.039 242.271 116.918 242.156 116.918 241.926C116.918 241.868 116.961 241.638 117.048 241.235C117.145 240.832 117.194 240.318 117.194 239.694C117.194 239.301 117.15 238.715 117.063 237.938C116.986 237.151 116.884 236.258 116.758 235.26C116.632 234.262 116.497 233.24 116.352 232.194C116.207 231.138 116.071 230.145 115.946 229.214C115.82 228.273 115.713 227.477 115.626 226.824C115.549 226.162 115.51 225.735 115.51 225.543C115.51 225.226 115.559 224.847 115.655 224.405C115.752 223.964 115.868 223.527 116.004 223.095C116.139 222.663 116.275 222.299 116.41 222.001C116.555 221.694 116.671 221.526 116.758 221.497C116.816 221.584 116.869 221.828 116.918 222.231C116.966 222.635 116.99 222.946 116.99 223.167V224.362L118.398 237.175Z" stroke="white" stroke-width="0.6" mask="url(#path-2-outside-1_554_958)"/>
<path d="M145.519 240.832C145.519 241.158 145.456 241.46 145.33 241.739C145.214 242.007 144.89 242.142 144.358 242.142H143.589C142.631 242.142 141.901 241.988 141.398 241.681C140.895 241.364 140.488 240.884 140.179 240.241C139.869 239.589 139.526 238.754 139.149 237.736C138.791 238.351 138.447 238.893 138.118 239.363C137.789 239.824 137.402 240.208 136.957 240.515C136.309 240.956 135.608 241.278 134.853 241.48C134.099 241.671 133.335 241.767 132.561 241.767C132.067 241.767 131.574 241.71 131.08 241.595C130.587 241.47 130.176 241.268 129.847 240.99C129.518 240.702 129.354 240.313 129.354 239.824C129.354 239.728 129.392 239.541 129.47 239.262C129.557 238.975 129.658 238.667 129.775 238.341C129.891 238.015 130.002 237.732 130.108 237.492C130.224 237.252 130.311 237.132 130.369 237.132C130.457 237.132 130.524 237.237 130.573 237.449C130.621 237.65 130.665 237.804 130.703 237.909C130.79 238.149 131.022 238.403 131.4 238.672C131.787 238.941 132.474 239.075 133.46 239.075C134.108 239.075 134.742 239.047 135.361 238.989C135.99 238.922 136.556 238.783 137.059 238.571C137.572 238.351 137.978 238.015 138.278 237.564C138.578 237.103 138.728 236.479 138.728 235.692C138.641 234.819 138.5 233.969 138.307 233.144C138.113 232.309 137.934 231.532 137.77 230.812C137.606 230.082 137.523 229.439 137.523 228.883C137.523 228.758 137.572 228.561 137.668 228.292C137.775 228.024 137.896 227.745 138.031 227.457C138.167 227.169 138.292 226.925 138.408 226.723C138.534 226.512 138.612 226.406 138.641 226.406C138.718 226.406 138.766 226.44 138.786 226.507C138.815 226.565 138.834 226.718 138.844 226.968C138.999 227.995 139.173 229.099 139.366 230.279C139.569 231.45 139.782 232.592 140.005 233.705C140.237 234.809 140.469 235.779 140.701 236.614C140.933 237.449 141.151 238.039 141.354 238.384C141.586 238.768 141.906 239.056 142.312 239.248C142.728 239.44 143.154 239.536 143.589 239.536H144.358C144.89 239.536 145.214 239.67 145.33 239.939C145.456 240.208 145.519 240.505 145.519 240.832Z" stroke="white" stroke-width="0.6" mask="url(#path-2-outside-1_554_958)"/>
<path d="M149.364 234.396C149.364 234.819 149.326 235.337 149.248 235.951C149.171 236.556 149.098 237.06 149.03 237.463C148.963 237.856 148.866 238.317 148.74 238.845C148.615 239.373 148.407 239.891 148.116 240.4C147.826 240.899 147.405 241.316 146.854 241.652C146.302 241.979 145.567 242.142 144.648 242.142H143.879C143.347 242.142 143.023 242.007 142.907 241.739C142.781 241.46 142.718 241.158 142.718 240.832C142.718 240.505 142.781 240.208 142.907 239.939C143.023 239.67 143.347 239.536 143.879 239.536H144.648C145.161 239.536 145.707 239.43 146.288 239.219C146.868 239.008 147.362 238.696 147.768 238.284C148.174 237.861 148.377 237.353 148.377 236.757C148.377 236.441 148.31 235.855 148.174 235.001C148.039 234.137 147.87 233.134 147.666 231.992C147.463 230.841 147.26 229.66 147.057 228.451C146.864 227.241 146.699 226.114 146.564 225.068C146.428 224.021 146.36 223.186 146.36 222.563C146.36 222.284 146.423 221.944 146.549 221.54C146.675 221.137 146.839 220.782 147.042 220.475C147.246 220.158 147.454 220 147.666 220C147.686 220 147.778 220.125 147.942 220.374C148.107 220.624 148.29 220.917 148.494 221.252C148.697 221.588 148.876 221.891 149.03 222.159C149.185 222.428 149.263 222.577 149.263 222.606C149.263 222.644 149.151 222.755 148.929 222.937C148.716 223.119 148.498 223.369 148.276 223.685C148.063 224.002 147.957 224.386 147.957 224.837C147.957 225.394 148.024 226.09 148.16 226.925C148.305 227.76 148.469 228.643 148.653 229.574C148.847 230.495 149.011 231.383 149.147 232.237C149.292 233.082 149.364 233.801 149.364 234.396Z" stroke="white" stroke-width="0.6" mask="url(#path-2-outside-1_554_958)"/>
<path d="M161.931 240.832C161.931 241.158 161.868 241.46 161.742 241.739C161.626 242.007 161.307 242.142 160.784 242.142L158.796 242.185C158.7 242.809 158.492 243.553 158.172 244.416C157.853 245.29 157.452 246.168 156.968 247.051C156.494 247.944 155.957 248.731 155.357 249.412C154.622 250.228 153.892 250.808 153.166 251.154C152.441 251.509 151.705 251.687 150.96 251.687C150.544 251.687 150.066 251.61 149.524 251.456C148.992 251.303 148.474 251.12 147.971 250.909C147.468 250.698 147.052 250.501 146.723 250.319C146.385 250.137 146.215 250.021 146.215 249.973C146.215 249.762 146.327 249.657 146.549 249.657C146.743 249.657 147.086 249.724 147.579 249.858C148.063 249.993 148.585 250.06 149.147 250.06C150.037 250.06 150.951 249.839 151.889 249.398C152.837 248.966 153.727 248.38 154.559 247.641C155.391 246.902 156.092 246.062 156.663 245.122C157.244 244.191 157.621 243.226 157.795 242.228C156.46 242.094 155.372 241.892 154.53 241.623C153.688 241.355 153.268 240.817 153.268 240.011C153.268 239.733 153.369 239.315 153.572 238.759C153.776 238.202 154.037 237.631 154.356 237.045C154.685 236.45 155.028 235.946 155.386 235.534C155.754 235.121 156.102 234.915 156.431 234.915C156.799 234.915 157.132 235.078 157.432 235.404C157.742 235.721 158.008 236.124 158.23 236.614C158.453 237.103 158.622 237.612 158.738 238.14C158.864 238.667 158.927 239.133 158.927 239.536H160.784C161.307 239.536 161.626 239.67 161.742 239.939C161.868 240.208 161.931 240.505 161.931 240.832ZM157.708 239.493C157.708 239.234 157.602 238.951 157.389 238.643C157.176 238.336 156.92 238.077 156.62 237.866C156.32 237.645 156.039 237.535 155.778 237.535C155.507 237.535 155.299 237.64 155.154 237.852C155.019 238.063 154.951 238.307 154.951 238.586C154.951 238.778 155.178 238.975 155.633 239.176C156.088 239.368 156.779 239.474 157.708 239.493Z" stroke="white" stroke-width="0.6" mask="url(#path-2-outside-1_554_958)"/>
<path d="M171 237.449C171 237.688 170.903 238.024 170.71 238.456C170.516 238.879 170.284 239.267 170.013 239.622C169.742 239.968 169.481 240.141 169.23 240.141C168.93 240.141 168.533 240.045 168.04 239.853C167.546 239.661 167.034 239.426 166.502 239.147C165.979 238.869 165.51 238.6 165.094 238.341C164.601 238.936 164.122 239.55 163.657 240.184C163.193 240.808 162.724 241.288 162.25 241.623C162.027 241.777 161.819 241.902 161.626 241.998C161.432 242.094 161.239 242.142 161.046 242.142H160.276C159.744 242.142 159.42 242.007 159.304 241.739C159.178 241.46 159.116 241.158 159.116 240.832C159.116 240.505 159.178 240.208 159.304 239.939C159.42 239.67 159.744 239.536 160.276 239.536H161.046C161.848 239.536 162.521 239.31 163.063 238.859C163.614 238.399 164.093 237.828 164.499 237.146C164.915 236.455 165.317 235.769 165.704 235.087C166.09 234.435 166.482 233.849 166.879 233.331C167.276 232.813 167.745 232.554 168.286 232.554C168.606 232.554 168.881 232.621 169.114 232.755C169.346 232.88 169.568 233.115 169.781 233.461C170.013 233.845 170.221 234.296 170.405 234.814C170.589 235.323 170.734 235.817 170.84 236.297C170.947 236.777 171 237.161 171 237.449ZM168.794 236.498C168.794 236.191 168.649 235.85 168.359 235.476C168.069 235.102 167.745 234.915 167.387 234.915C167.106 234.915 166.869 235.011 166.676 235.203C166.492 235.395 166.4 235.615 166.4 235.865C166.4 235.903 166.415 235.951 166.444 236.009C166.473 236.066 166.54 236.129 166.647 236.196C166.831 236.292 167.063 236.388 167.343 236.484C167.633 236.58 167.9 236.657 168.141 236.714C168.383 236.772 168.528 236.801 168.577 236.801C168.722 236.801 168.794 236.7 168.794 236.498Z" stroke="white" stroke-width="0.6" mask="url(#path-2-outside-1_554_958)"/>
<path d="M103.269 66.3403L111.212 90.7842H136.914L116.12 105.891L124.063 130.335L103.269 115.228L82.4762 130.335L90.4185 105.891L69.6253 90.7842H95.3271L103.269 66.3403Z" fill="white"/>
<path fill-rule="evenodd" clip-rule="evenodd" d="M103.269 150.193C132.214 150.193 155.678 126.729 155.678 97.7852C155.678 81.87 148.583 67.6116 137.385 58C153.929 68.8931 164.849 87.6323 164.849 108.922C164.849 142.57 137.572 169.847 103.925 169.847C70.2769 169.847 43 142.57 43 108.922C43 90.2156 51.4307 73.4783 64.6998 62.3024C56.1079 71.6369 50.8612 84.0983 50.8612 97.7852C50.8612 126.729 74.3252 150.193 103.269 150.193Z" fill="white"/>
<path d="M146.021 121.639L138.667 121.771L117.682 106.825L142.244 115.549L146.021 121.639Z" fill="white"/>
<path d="M60.0327 121.639L67.3859 121.771L88.3714 106.825L63.8094 115.549L60.0327 121.639Z" fill="white"/>
<path d="M103.904 148.095L107.262 141.552L103.089 116.128L100.101 142.022L103.904 148.095Z" fill="white"/>
<path d="M131.626 62.4097L130.897 69.7279L113.602 88.8232L125.137 65.4489L131.626 62.4097Z" fill="white"/>
<path d="M74.2955 62.4097L75.0243 69.7279L92.3199 88.8232L80.785 65.4489L74.2955 62.4097Z" fill="white"/>
<path d="M108.935 23.5577C109.113 23.5577 109.275 23.6174 109.418 23.7369C109.561 23.8444 109.632 24.0056 109.632 24.2207C109.632 24.4118 109.573 24.6268 109.453 24.8657C109.334 25.1046 109.137 25.3615 108.863 25.6362C108.6 25.899 108.219 26.1977 107.718 26.5321C107.228 26.8666 106.763 27.1593 106.322 27.4102C105.88 27.6491 105.6 27.7685 105.481 27.7685C105.433 27.7685 105.409 27.7506 105.409 27.7148C105.409 27.5953 105.534 27.3146 105.785 26.8726C106.035 26.4187 106.328 25.9468 106.662 25.457C106.996 24.9673 107.288 24.591 107.539 24.3282C107.813 24.0534 108.064 23.8563 108.29 23.7369C108.529 23.6174 108.744 23.5577 108.935 23.5577ZM105.337 23.4143C105.337 23.8085 105.272 24.3222 105.141 24.9553C105.009 25.5765 104.872 26.132 104.729 26.6217C104.586 27.1115 104.484 27.3564 104.425 27.3564C104.353 27.3564 104.24 27.1115 104.085 26.6217C103.93 26.132 103.786 25.5765 103.655 24.9553C103.524 24.3222 103.458 23.8085 103.458 23.4143C103.458 22.7812 103.56 22.3273 103.763 22.0525C103.965 21.7778 104.186 21.6404 104.425 21.6404C104.663 21.6404 104.872 21.7778 105.051 22.0525C105.242 22.3273 105.337 22.7812 105.337 23.4143ZM111.547 28.754C111.547 29.0049 111.404 29.2259 111.118 29.417C110.831 29.5962 110.39 29.6858 109.794 29.6858C109.388 29.6858 108.869 29.6261 108.237 29.5066C107.616 29.3872 107.061 29.2558 106.572 29.1124C106.083 28.9571 105.838 28.8377 105.838 28.754C105.838 28.6824 106.083 28.5749 106.572 28.4315C107.061 28.2762 107.616 28.1388 108.237 28.0194C108.869 27.8999 109.388 27.8402 109.794 27.8402C110.39 27.8402 110.831 27.9358 111.118 28.1269C111.404 28.3061 111.547 28.5151 111.547 28.754ZM103.405 27.7148C103.405 27.7506 103.393 27.7685 103.369 27.7685C103.25 27.7685 102.963 27.6491 102.51 27.4102C102.068 27.1593 101.597 26.8666 101.096 26.5321C100.607 26.1977 100.225 25.893 99.9507 25.6183C99.6763 25.3435 99.4794 25.0927 99.3601 24.8657C99.2408 24.6268 99.1812 24.4118 99.1812 24.2207C99.1812 24.0415 99.2468 23.8862 99.378 23.7548C99.5212 23.6234 99.6942 23.5577 99.897 23.5577C100.076 23.5577 100.285 23.6174 100.523 23.7369C100.774 23.8563 101.036 24.0534 101.311 24.3282C101.573 24.591 101.866 24.9732 102.188 25.4749C102.522 25.9647 102.808 26.4366 103.047 26.8905C103.285 27.3325 103.405 27.6073 103.405 27.7148ZM109.632 33.3054C109.632 33.7593 109.4 33.9863 108.935 33.9863C108.744 33.9863 108.529 33.9265 108.29 33.8071C108.064 33.6876 107.813 33.4905 107.539 33.2158C107.288 32.941 106.996 32.5587 106.662 32.069C106.328 31.5792 106.035 31.1133 105.785 30.6713C105.534 30.2293 105.409 29.9486 105.409 29.8292C105.409 29.7933 105.433 29.7754 105.481 29.7754C105.6 29.7754 105.88 29.9008 106.322 30.1517C106.763 30.3906 107.228 30.6773 107.718 31.0118C108.219 31.3343 108.6 31.633 108.863 31.9077C109.376 32.4214 109.632 32.8873 109.632 33.3054ZM103.029 28.754C103.029 28.8377 102.778 28.9571 102.277 29.1124C101.788 29.2558 101.227 29.3872 100.595 29.5066C99.9746 29.6261 99.4615 29.6858 99.0559 29.6858C98.4355 29.6858 97.9821 29.5962 97.6958 29.417C97.4214 29.2259 97.2842 29.0049 97.2842 28.754C97.2842 28.5151 97.4214 28.3061 97.6958 28.1269C97.9821 27.9358 98.4355 27.8402 99.0559 27.8402C99.4615 27.8402 99.9746 27.8999 100.595 28.0194C101.227 28.1388 101.788 28.2762 102.277 28.4315C102.778 28.5749 103.029 28.6824 103.029 28.754ZM105.337 34.1296C105.337 34.7508 105.242 35.1987 105.051 35.4735C104.872 35.7602 104.663 35.9035 104.425 35.9035C104.186 35.9035 103.965 35.7602 103.763 35.4735C103.56 35.1987 103.458 34.7508 103.458 34.1296C103.458 33.7354 103.524 33.2277 103.655 32.6065C103.786 31.9734 103.93 31.412 104.085 30.9222C104.24 30.4324 104.353 30.1875 104.425 30.1875C104.484 30.1875 104.586 30.4324 104.729 30.9222C104.872 31.412 105.009 31.9734 105.141 32.6065C105.272 33.2277 105.337 33.7354 105.337 34.1296ZM103.369 29.7754C103.393 29.7754 103.405 29.7933 103.405 29.8292C103.405 29.9247 103.285 30.1995 103.047 30.6534C102.808 31.0954 102.522 31.5673 102.188 32.069C101.866 32.5587 101.573 32.941 101.311 33.2158C101.036 33.4905 100.774 33.6876 100.523 33.8071C100.285 33.9265 100.076 33.9863 99.897 33.9863C99.7061 33.9863 99.5391 33.9265 99.3959 33.8071C99.2527 33.6876 99.1812 33.5263 99.1812 33.3233C99.1812 32.9052 99.4377 32.4393 99.9507 31.9256C100.225 31.6509 100.607 31.3463 101.096 31.0118C101.597 30.6773 102.068 30.3906 102.51 30.1517C102.963 29.9008 103.25 29.7754 103.369 29.7754Z" fill="white"/>
<path d="M109.885 275.54C110.064 275.54 110.225 275.6 110.369 275.719C110.512 275.827 110.583 275.988 110.583 276.203C110.583 276.394 110.524 276.609 110.404 276.848C110.285 277.087 110.088 277.344 109.814 277.619C109.551 277.881 109.17 278.18 108.669 278.515C108.179 278.849 107.714 279.142 107.273 279.393C106.831 279.631 106.551 279.751 106.432 279.751C106.384 279.751 106.36 279.733 106.36 279.697C106.36 279.578 106.485 279.297 106.736 278.855C106.986 278.401 107.279 277.929 107.613 277.439C107.947 276.95 108.239 276.573 108.49 276.311C108.764 276.036 109.014 275.839 109.241 275.719C109.48 275.6 109.695 275.54 109.885 275.54ZM106.288 275.397C106.288 275.791 106.223 276.305 106.091 276.938C105.96 277.559 105.823 278.114 105.68 278.604C105.537 279.094 105.435 279.339 105.376 279.339C105.304 279.339 105.191 279.094 105.036 278.604C104.881 278.114 104.737 277.559 104.606 276.938C104.475 276.305 104.409 275.791 104.409 275.397C104.409 274.764 104.511 274.31 104.713 274.035C104.916 273.76 105.137 273.623 105.376 273.623C105.614 273.623 105.823 273.76 106.002 274.035C106.193 274.31 106.288 274.764 106.288 275.397ZM112.498 280.736C112.498 280.987 112.355 281.208 112.069 281.399C111.782 281.579 111.341 281.668 110.744 281.668C110.339 281.668 109.82 281.608 109.187 281.489C108.567 281.37 108.012 281.238 107.523 281.095C107.034 280.94 106.789 280.82 106.789 280.736C106.789 280.665 107.034 280.557 107.523 280.414C108.012 280.259 108.567 280.121 109.187 280.002C109.82 279.882 110.339 279.823 110.744 279.823C111.341 279.823 111.782 279.918 112.069 280.109C112.355 280.288 112.498 280.498 112.498 280.736ZM104.356 279.697C104.356 279.733 104.344 279.751 104.32 279.751C104.2 279.751 103.914 279.631 103.461 279.393C103.019 279.142 102.548 278.849 102.047 278.515C101.558 278.18 101.176 277.875 100.902 277.601C100.627 277.326 100.43 277.075 100.311 276.848C100.192 276.609 100.132 276.394 100.132 276.203C100.132 276.024 100.198 275.869 100.329 275.737C100.472 275.606 100.645 275.54 100.848 275.54C101.027 275.54 101.236 275.6 101.474 275.719C101.725 275.839 101.987 276.036 102.262 276.311C102.524 276.573 102.816 276.956 103.139 277.457C103.473 277.947 103.759 278.419 103.998 278.873C104.236 279.315 104.356 279.59 104.356 279.697ZM110.583 285.288C110.583 285.742 110.351 285.969 109.885 285.969C109.695 285.969 109.48 285.909 109.241 285.789C109.014 285.67 108.764 285.473 108.49 285.198C108.239 284.923 107.947 284.541 107.613 284.051C107.279 283.562 106.986 283.096 106.736 282.654C106.485 282.212 106.36 281.931 106.36 281.812C106.36 281.776 106.384 281.758 106.432 281.758C106.551 281.758 106.831 281.883 107.273 282.134C107.714 282.373 108.179 282.66 108.669 282.994C109.17 283.317 109.551 283.615 109.814 283.89C110.327 284.404 110.583 284.87 110.583 285.288ZM103.98 280.736C103.98 280.82 103.729 280.94 103.228 281.095C102.739 281.238 102.178 281.37 101.546 281.489C100.925 281.608 100.412 281.668 100.007 281.668C99.3864 281.668 98.9331 281.579 98.6467 281.399C98.3723 281.208 98.2351 280.987 98.2351 280.736C98.2351 280.498 98.3723 280.288 98.6467 280.109C98.9331 279.918 99.3864 279.823 100.007 279.823C100.412 279.823 100.925 279.882 101.546 280.002C102.178 280.121 102.739 280.259 103.228 280.414C103.729 280.557 103.98 280.665 103.98 280.736ZM106.288 286.112C106.288 286.733 106.193 287.181 106.002 287.456C105.823 287.743 105.614 287.886 105.376 287.886C105.137 287.886 104.916 287.743 104.713 287.456C104.511 287.181 104.409 286.733 104.409 286.112C104.409 285.718 104.475 285.21 104.606 284.589C104.737 283.956 104.881 283.394 105.036 282.905C105.191 282.415 105.304 282.17 105.376 282.17C105.435 282.17 105.537 282.415 105.68 282.905C105.823 283.394 105.96 283.956 106.091 284.589C106.223 285.21 106.288 285.718 106.288 286.112ZM104.32 281.758C104.344 281.758 104.356 281.776 104.356 281.812C104.356 281.907 104.236 282.182 103.998 282.636C103.759 283.078 103.473 283.55 103.139 284.051C102.816 284.541 102.524 284.923 102.262 285.198C101.987 285.473 101.725 285.67 101.474 285.789C101.236 285.909 101.027 285.969 100.848 285.969C100.657 285.969 100.49 285.909 100.347 285.789C100.204 285.67 100.132 285.509 100.132 285.306C100.132 284.888 100.389 284.422 100.902 283.908C101.176 283.633 101.558 283.329 102.047 282.994C102.548 282.66 103.019 282.373 103.461 282.134C103.914 281.883 104.2 281.758 104.32 281.758Z" fill="white"/>
</svg>
